{
.appVersion = "1075";
DisplayStrings = (
"H_OG/_corner.02 AB/_corner.01 CEDF/_corner.01 G-HIJKLMNOPQRST/_corner.01/_corner.02 UAV/_corner.01 WYZ XIS3BH1/_corner.01 29/_corner.01 4\012\012F5.6\012\012FUJINON XF10426738-55MMF2.8-4\012\012LEICA",
"HAHBHCHDHEHFHGHHIHJHKHLHMHNHO-HPHQHRHSHTHUHVHWHXHYHZH\012010203040506070509\012F5.6",
"the quick brown fox jumps over the lazy dog",
"1:1.456//21\012HTTP:////DOTCOL/_corner.01 OL_N.NET\012LTKTAIn NvVnhiuo\012Nihnontoocpqbdt fonatgijnvsmrter\012\012Lt.Fukai\012zone of tlhe enders",
Znzn,
"Ww windows",
"Xxwindows extreme",
Moonlight,
"",
"POP TEAM EPIC",
"n/jdotless ij",
"",
ij,
"a/acutecomb eo/acutecomb uwy",
/gravecomb/acutecomb/hungarumlautcomb/caroncomb/brevecomb/ringcomb/tildecomb/macroncomb,
"",
rs,
ac,
"",
"",
/gravecomb,
/gravecomb/acutecomb,
"/gravecomb a",
"Migestalt\012F",
8,
HAHBHCHDHEHFHGHHIHJHKHLHMHNHOHPHQHRHSHTHUHVHWHXHYHZH,
0102030405060708090,
"Kingsman Goldbqpoen Cilcle F5.6\012Finger"
);
copyright = "Copyright (C) 2015 by Sora Sagano.";
date = "2017-11-19 11:44:34 +0000";
designer = "Sora Sagano";
designerURL = "http://www.dotcolon.net";
familyName = F5.6;
featurePrefixes = (
{
automatic = 1;
code = "languagesystem DFLT dflt;\012";
name = Languagesystems;
}
);
fontMaster = (
{
ascender = 870;
capHeight = 870;
descender = -130;
guideLines = (
{
locked = 1;
position = "{0, 445}";
}
);
horizontalStems = (
116
);
id = "71411993-19D9-448E-BF2F-5CFC0F6AC4B0";
userData = {
GSCornerRadius = 20;
};
verticalStems = (
120
);
xHeight = 680;
}
);
glyphs = (
{
glyphname = A;
lastChange = "2018-01-07 13:24:40 +0000";
layers = (
{
layerId = "71411993-19D9-448E-BF2F-5CFC0F6AC4B0";
paths = (
{
closed = 1;
nodes = (
"232 282 LINE",
"603 282 LINE",
"603 398 LINE",
"232 398 LINE"
);
},
{
closed = 1;
nodes = (
"435 810 LINE",
"412 810 LINE",
"626 24 LINE SMOOTH",
"630 8 OFFCURVE",
"642 0 OFFCURVE",
"658 0 CURVE SMOOTH",
"727 0 LINE SMOOTH",
"747 0 OFFCURVE",
"757 12 OFFCURVE",
"751 32 CURVE SMOOTH",
"533 806 LINE SMOOTH",
"516 866 OFFCURVE",
"482 880 OFFCURVE",
"424 880 CURVE SMOOTH",
"366 880 OFFCURVE",
"332 866 OFFCURVE",
"315 806 CURVE SMOOTH",
"97 32 LINE SMOOTH",
"91 12 OFFCURVE",
"101 0 OFFCURVE",
"121 0 CURVE SMOOTH",
"189 0 LINE SMOOTH",
"205 0 OFFCURVE",
"217 8 OFFCURVE",
"221 24 CURVE SMOOTH"
);
}
);
width = 847;
},
{
associatedMasterId = "71411993-19D9-448E-BF2F-5CFC0F6AC4B0";
layerId = "A029CB14-0953-4271-85B3-D91444E63FAD";
name = "Nov 18 17, 09:15";
paths = (
{
closed = 1;
nodes = (
"135 0 LINE",
"255 0 LINE",
"413 780 LINE",
"469 780 LINE",
"625 0 LINE",
"745 0 LINE",
"560 840 LINE",
"320 840 LINE"
);
},
{
closed = 1;
nodes = (
"413 780 OFFCURVE",
"440 807 OFFCURVE",
"440 840 CURVE SMOOTH",
"440 873 OFFCURVE",
"413 900 OFFCURVE",
"380 900 CURVE SMOOTH",
"347 900 OFFCURVE",
"320 873 OFFCURVE",
"320 840 CURVE SMOOTH",
"320 807 OFFCURVE",
"347 780 OFFCURVE",
"380 780 CURVE SMOOTH"
);
},
{
closed = 1;
nodes = (
"533 780 OFFCURVE",
"560 807 OFFCURVE",
"560 840 CURVE SMOOTH",
"560 873 OFFCURVE",
"533 900 OFFCURVE",
"500 900 CURVE SMOOTH",
"467 900 OFFCURVE",
"440 873 OFFCURVE",
"440 840 CURVE SMOOTH",
"440 807 OFFCURVE",
"467 780 OFFCURVE",
"500 780 CURVE SMOOTH"
);
},
{
closed = 1;
nodes = (
"440 840 LINE",
"500 900 LINE",
"380 900 LINE"
);
}
);
width = 880;
}
);
unicode = 0041;
},
{
glyphname = B;
lastChange = "2018-01-07 12:28:08 +0000";
layers = (
{
hints = (
{
origin = "{0, 5}";
type = Corner;
name = _corner.01;
},
{
origin = "{0, 14}";
type = Corner;
name = _corner.01;
},
{
origin = "{0, 15}";
type = Corner;
name = _corner.01;
},
{
origin = "{0, 13}";
type = Corner;
name = _corner.02;
},
{
origin = "{0, 6}";
type = Corner;
name = _corner.02;
}
);
layerId = "71411993-19D9-448E-BF2F-5CFC0F6AC4B0";
paths = (
{
closed = 1;
nodes = (
"270 498 LINE",
"270 754 LINE",
"460 754 LINE",
"460 470 LINE",
"580 470 LINE",
"580 870 LINE",
"150 870 LINE",
"150 382 LINE",
"580 382 LINE",
"580 116 LINE",
"270 116 LINE",
"270 440 LINE",
"150 440 LINE",
"150 0 LINE",
"700 0 LINE",
"700 498 LINE"
);
}
);
width = 830;
}
);
leftMetricsKey = H;
unicode = 0042;
},
{
glyphname = C;
lastChange = "2018-01-07 12:16:29 +0000";
layers = (
{
hints = (
{
origin = "{0, 2}";
type = Corner;
name = _corner.02;
},
{
origin = "{0, 3}";
type = Corner;
name = _corner.02;
},
{
origin = "{0, 4}";
type = Corner;
name = _corner.01;
},
{
origin = "{0, 5}";
type = Corner;
name = _corner.01;
},
{
origin = "{1, 4}";
type = Corner;
name = _corner.02;
},
{
origin = "{1, 3}";
type = Corner;
name = _corner.02;
},
{
origin = "{1, 2}";
type = Corner;
name = _corner.01;
},
{
origin = "{1, 1}";
type = Corner;
name = _corner.01;
}
);
layerId = "71411993-19D9-448E-BF2F-5CFC0F6AC4B0";
paths = (
{
closed = 1;
nodes = (
"270 754 LINE",
"570 754 LINE",
"570 630 LINE",
"690 630 LINE",
"690 870 LINE",
"150 870 LINE",
"150 372 LINE",
"270 488 LINE"
);
},
{
closed = 1;
nodes = (
"150 468 LINE",
"150 0 LINE",
"690 0 LINE",
"690 240 LINE",
"570 240 LINE",
"570 116 LINE",
"270 116 LINE",
"270 575 LINE"
);
}
);
width = 807;
}
);
leftMetricsKey = O;
unicode = 0043;
},
{
glyphname = D;
lastChange = "2018-01-07 12:28:34 +0000";
layers = (
{
hints = (
{
origin = "{0, 4}";
type = Corner;
name = _corner.02;
},
{
origin = "{0, 3}";
type = Corner;
name = _corner.02;
},
{
origin = "{0, 5}";
type = Corner;
name = _corner.01;
}
);
layerId = "71411993-19D9-448E-BF2F-5CFC0F6AC4B0";
paths = (
{
closed = 1;
nodes = (
"539 844 OFFCURVE",
"497 870 OFFCURVE",
"430 870 CURVE SMOOTH",
"150 870 LINE",
"150 0 LINE",
"724 0 LINE",
"724 425 LINE SMOOTH",
"724 482 OFFCURVE",
"714 525 OFFCURVE",
"687 574 CURVE SMOOTH",
"572 784 LINE SMOOTH"
);
},
{
closed = 1;
nodes = (
"390 754 LINE SMOOTH",
"434 754 OFFCURVE",
"463 735 OFFCURVE",
"484 696 CURVE SMOOTH",
"575 526 LINE SMOOTH",
"597 485 OFFCURVE",
"604 450 OFFCURVE",
"604 403 CURVE SMOOTH",
"604 116 LINE",
"270 116 LINE",
"270 754 LINE"
);
}
);
width = 839;
}
);
leftMetricsKey = H;
unicode = 0044;
},
{
glyphname = E;
lastChange = "2018-01-07 12:16:39 +0000";
layers = (
{
hints = (
{
origin = "{0, 0}";
type = Corner;
name = _corner.02;
},
{
origin = "{0, 1}";
type = Corner;
name = _corner.02;
},
{
origin = "{0, 3}";
type = Corner;
name = _corner.02;
},
{
origin = "{1, 1}";
type = Corner;
name = _corner.02;
},
{
origin = "{1, 2}";
type = Corner;
name = _corner.02;
},
{
origin = "{2, 1}";
type = Corner;
name = _corner.02;
},
{
origin = "{2, 2}";
type = Corner;
name = _corner.02;
},
{
origin = "{3, 1}";
type = Corner;
name = _corner.02;
},
{
origin = "{3, 2}";
type = Corner;
name = _corner.02;
}
);
layerId = "71411993-19D9-448E-BF2F-5CFC0F6AC4B0";
paths = (
{
closed = 1;
nodes = (
"150 0 LINE",
"270 0 LINE",
"270 870 LINE",
"150 870 LINE"
);
},
{
closed = 1;
nodes = (
"229 754 LINE",
"610 754 LINE",
"610 870 LINE",
"229 870 LINE"
);
},
{
closed = 1;
nodes = (
"229 387 LINE",
"580 387 LINE",
"580 503 LINE",
"229 503 LINE"
);
},
{
closed = 1;
nodes = (
"229 0 LINE",
"640 0 LINE",
"640 116 LINE",
"229 116 LINE"
);
}
);
width = 738;
}
);
leftMetricsKey = H;
unicode = 0045;
},
{
glyphname = F;
lastChange = "2018-01-09 12:41:52 +0000";
layers = (
{
hints = (
{
origin = "{0, 0}";
type = Corner;
name = _corner.02;
},
{
origin = "{0, 1}";
type = Corner;
name = _corner.02;
},
{
origin = "{0, 3}";
type = Corner;
name = _corner.02;
},
{
origin = "{2, 1}";
type = Corner;
name = _corner.02;
},
{
origin = "{2, 2}";
type = Corner;
name = _corner.02;
},
{
origin = "{1, 1}";
type = Corner;
name = _corner.02;
},
{
origin = "{1, 2}";
type = Corner;
name = _corner.02;
}
);
layerId = "71411993-19D9-448E-BF2F-5CFC0F6AC4B0";
paths = (
{
closed = 1;
nodes = (
"150 0 LINE",
"270 0 LINE",
"270 870 LINE",
"150 870 LINE"
);
},
{
closed = 1;
nodes = (
"229 754 LINE",
"640 754 LINE",
"640 870 LINE",
"229 870 LINE"
);
},
{
closed = 1;
nodes = (
"229 387 LINE",
"610 387 LINE",
"610 503 LINE",
"229 503 LINE"
);
}
);
width = 724;
}
);
leftMetricsKey = H;
unicode = 0046;
},
{
glyphname = G;
lastChange = "2018-01-07 12:16:48 +0000";
layers = (
{
hints = (
{
origin = "{0, 0}";
type = Corner;
name = _corner.01;
},
{
origin = "{0, 1}";
type = Corner;
name = _corner.01;
},
{
origin = "{0, 2}";
type = Corner;
name = _corner.02;
},
{
origin = "{1, 5}";
type = Corner;
name = _corner.01;
},
{
origin = "{1, 4}";
type = Corner;
name = _corner.01;
},
{
origin = "{1, 3}";
type = Corner;
name = _corner.02;
},
{
origin = "{1, 2}";
type = Corner;
name = _corner.02;
},
{
origin = "{2, 1}";
type = Corner;
name = _corner.02;
},
{
origin = "{2, 0}";
type = Corner;
name = _corner.02;
}
);
layerId = "71411993-19D9-448E-BF2F-5CFC0F6AC4B0";
paths = (
{
closed = 1;
nodes = (
"150 0 LINE",
"706 0 LINE",
"706 503 LINE",
"586 503 LINE",
"586 116 LINE",
"270 116 LINE",
"270 600 LINE",
"150 600 LINE"
);
},
{
closed = 1;
nodes = (
"270 754 LINE",
"576 754 LINE",
"576 630 LINE",
"696 630 LINE",
"696 870 LINE",
"150 870 LINE",
"150 402 LINE",
"270 518 LINE"
);
},
{
closed = 1;
nodes = (
"426 503 LINE",
"426 387 LINE",
"636 387 LINE",
"636 503 LINE"
);
}
);
width = 852;
}
);
leftMetricsKey = O;
unicode = 0047;
},
{
glyphname = H;
lastChange = "2018-01-07 12:15:42 +0000";
layers = (
{
hints = (
{
origin = "{0, 1}";
type = Corner;
name = _corner.02;
},
{
origin = "{0, 0}";
type = Corner;
name = _corner.02;
},
{
origin = "{1, 0}";
type = Corner;
name = _corner.02;
},
{
origin = "{1, 1}";
type = Corner;
name = _corner.02;
},
{
origin = "{1, 2}";
type = Corner;
name = _corner.02;
},
{
origin = "{1, 3}";
type = Corner;
name = _corner.02;
},
{
origin = "{0, 2}";
type = Corner;
name = _corner.02;
},
{
origin = "{0, 3}";
type = Corner;
name = _corner.02;
}
);
layerId = "71411993-19D9-448E-BF2F-5CFC0F6AC4B0";
paths = (
{
closed = 1;
nodes = (
"150 0 LINE",
"270 0 LINE",
"270 870 LINE",
"150 870 LINE"
);
},
{
closed = 1;
nodes = (
"630 0 LINE",
"750 0 LINE",
"750 870 LINE",
"630 870 LINE"
);
},
{
closed = 1;
nodes = (
"229 387 LINE",
"679 387 LINE",
"679 503 LINE",
"229 503 LINE"
);
}
);
width = 900;
}
);
unicode = 0048;
},
{
glyphname = I;
lastChange = "2017-12-16 13:13:39 +0000";
layers = (
{
hints = (
{
origin = "{0, 1}";
type = Corner;
name = _corner.02;
},
{
origin = "{0, 2}";
type = Corner;
name = _corner.02;
},
{
origin = "{0, 11}";
type = Corner;
name = _corner.02;
},
{
origin = "{0, 0}";
type = Corner;
name = _corner.02;
},
{
origin = "{0, 5}";
type = Corner;
name = _corner.02;
},
{
origin = "{0, 6}";
type = Corner;
name = _corner.02;
},
{
origin = "{0, 7}";
type = Corner;
name = _corner.02;
},
{
origin = "{0, 8}";
type = Corner;
name = _corner.02;
}
);
layerId = "71411993-19D9-448E-BF2F-5CFC0F6AC4B0";
paths = (
{
closed = 1;
nodes = (
"475 870 LINE",
"115 870 LINE",
"115 754 LINE",
"235 754 LINE",
"235 116 LINE",
"115 116 LINE",
"115 0 LINE",
"475 0 LINE",
"475 116 LINE",
"355 116 LINE",
"355 754 LINE",
"475 754 LINE"
);
}
);
width = 590;
}
);
unicode = 0049;
},
{
glyphname = J;
lastChange = "2018-01-07 12:17:03 +0000";
layers = (
{
hints = (
{
origin = "{0, 0}";
type = Corner;
name = _corner.01;
},
{
origin = "{0, 1}";
type = Corner;
name = _corner.01;
},
{
origin = "{0, 2}";
type = Corner;
name = _corner.02;
},
{
origin = "{0, 3}";
type = Corner;
name = _corner.02;
},
{
origin = "{0, 6}";
type = Corner;
name = _corner.02;
},
{
origin = "{0, 7}";
type = Corner;
name = _corner.02;
}
);
layerId = "71411993-19D9-448E-BF2F-5CFC0F6AC4B0";
paths = (
{
closed = 1;
nodes = (
"80 0 LINE",
"570 0 LINE",
"570 870 LINE",
"450 870 LINE",
"450 116 LINE",
"200 116 LINE",
"200 236 LINE",
"80 236 LINE"
);
}
);
width = 720;
}
);
rightMetricsKey = H;
unicode = 004A;
},
{
glyphname = K;
lastChange = "2018-01-07 12:17:38 +0000";
layers = (
{
hints = (
{
origin = "{0, 0}";
type = Corner;
name = _corner.02;
},
{
origin = "{0, 2}";
type = Corner;
name = _corner.02;
},
{
origin = "{0, 3}";
type = Corner;
name = _corner.02;
},
{
origin = "{0, 1}";
type = Corner;
name = _corner.02;
}
);
layerId = "71411993-19D9-448E-BF2F-5CFC0F6AC4B0";
paths = (
{
closed = 1;
nodes = (
"150 0 LINE",
"270 0 LINE",
"270 870 LINE",
"150 870 LINE"
);
},
{
closed = 1;
nodes = (
"198 387 LINE",
"465 387 LINE",
"465 503 LINE",
"198 503 LINE"
);
},
{
closed = 1;
nodes = (
"376 455 LINE",
"592 20 LINE SMOOTH",
"599 6 OFFCURVE",
"610 0 OFFCURVE",
"625 0 CURVE SMOOTH",
"705 0 LINE SMOOTH",
"726 0 OFFCURVE",
"735 13 OFFCURVE",
"725 33 CURVE SMOOTH",
"461 560 LINE"
);
},
{
closed = 1;
nodes = (
"702 837 LINE SMOOTH",
"711 856 OFFCURVE",
"702 870 OFFCURVE",
"681 870 CURVE SMOOTH",
"609 870 LINE SMOOTH",
"594 870 OFFCURVE",
"583 864 OFFCURVE",
"576 849 CURVE SMOOTH",
"374 435 LINE",
"453 330 LINE"
);
}
);
width = 802;
}
);
leftMetricsKey = H;
unicode = 004B;
},
{
glyphname = L;
lastChange = "2018-01-07 12:17:54 +0000";
layers = (
{
hints = (
{
origin = "{0, 3}";
type = Corner;
name = _corner.02;
},
{
origin = "{1, 1}";
type = Corner;
name = _corner.02;
},
{
origin = "{1, 2}";
type = Corner;
name = _corner.02;
},
{
origin = "{0, 2}";
type = Corner;
name = _corner.02;
},
{
origin = "{0, 0}";
type = Corner;
name = _corner.02;
}
);
layerId = "71411993-19D9-448E-BF2F-5CFC0F6AC4B0";
paths = (
{
closed = 1;
nodes = (
"150 0 LINE",
"270 0 LINE",
"270 870 LINE",
"150 870 LINE"
);
},
{
closed = 1;
nodes = (
"270 0 LINE",
"640 0 LINE",
"640 116 LINE",
"270 116 LINE"
);
}
);
width = 699;
}
);
leftMetricsKey = H;
unicode = 004C;
},
{
glyphname = M;
lastChange = "2018-01-07 13:29:37 +0000";
layers = (
{
associatedMasterId = "71411993-19D9-448E-BF2F-5CFC0F6AC4B0";
hints = (
{
origin = "{0, 1}";
type = Corner;
name = _corner.02;
},
{
origin = "{0, 2}";
type = Corner;
name = _corner.02;
},
{
origin = "{0, 5}";
type = Corner;
name = _corner.02;
},
{
origin = "{0, 6}";
type = Corner;
name = _corner.02;
},
{
origin = "{1, 0}";
type = Corner;
name = _corner.02;
},
{
origin = "{1, 1}";
type = Corner;
name = _corner.02;
},
{
origin = "{0, 0}";
type = Corner;
name = _corner.01;
},
{
origin = "{0, 7}";
type = Corner;
name = _corner.01;
}
);
layerId = "0233FD9F-4217-47BA-9A1B-C0A1CB0D4706";
name = "Nov 18 17, 22:21";
paths = (
{
closed = 1;
nodes = (
"120 900 LINE",
"120 0 LINE",
"240 0 LINE",
"240 784 LINE",
"780 784 LINE",
"780 0 LINE",
"900 0 LINE",
"900 900 LINE"
);
},
{
closed = 1;
nodes = (
"450 0 LINE",
"570 0 LINE",
"570 900 LINE",
"450 900 LINE"
);
}
);
width = 1020;
},
{
associatedMasterId = "71411993-19D9-448E-BF2F-5CFC0F6AC4B0";
hints = (
{
origin = "{0, 2}";
type = Corner;
name = _corner.02;
},
{
origin = "{0, 3}";
type = Corner;
name = _corner.02;
},
{
origin = "{0, 7}";
type = Corner;
name = _corner.02;
},
{
origin = "{0, 8}";
type = Corner;
name = _corner.02;
},
{
origin = "{0, 1}";
type = Corner;
name = _corner.01;
},
{
origin = "{0, 9}";
type = Corner;
name = _corner.01;
},
{
origin = "{0, 5}";
type = Corner;
name = _corner.01;
}
);
layerId = "F2C8D50C-31DC-4EB8-804A-A9DE58714928";
name = "Nov 18 17, 22:24";
paths = (
{
closed = 1;
nodes = (
"510 583 LINE",
"140 953 LINE",
"140 0 LINE",
"260 0 LINE",
"260 674 LINE",
"510 424 LINE",
"760 674 LINE",
"760 0 LINE",
"880 0 LINE",
"880 953 LINE"
);
}
);
width = 1020;
},
{
associatedMasterId = "71411993-19D9-448E-BF2F-5CFC0F6AC4B0";
hints = (
{
origin = "{1, 0}";
type = Corner;
name = _corner.02;
},
{
origin = "{1, 1}";
type = Corner;
name = _corner.02;
},
{
origin = "{1, 2}";
type = Corner;
name = _corner.02;
},
{
origin = "{1, 3}";
type = Corner;
name = _corner.02;
},
{
origin = "{2, 0}";
type = Corner;
name = _corner.02;
},
{
origin = "{2, 1}";
type = Corner;
name = _corner.02;
},
{
origin = "{2, 2}";
type = Corner;
name = _corner.02;
},
{
origin = "{2, 3}";
type = Corner;
name = _corner.02;
}
);
layerId = "A8953463-8E9F-4731-B26A-D9FA4432F0FF";
name = "Nov 19 17, 13:34";
paths = (
{
closed = 1;
nodes = (
"790 784 LINE",
"458 452 LINE",
"573 443 LINE",
"232 784 LINE",
"249 594 LINE",
"437 406 LINE SMOOTH",
"467 376 OFFCURVE",
"482 369 OFFCURVE",
"510 369 CURVE SMOOTH",
"538 369 OFFCURVE",
"554 375 OFFCURVE",
"583 404 CURVE SMOOTH",
"771 594 LINE"
);
},
{
closed = 1;
nodes = (
"140 0 LINE",
"260 0 LINE",
"260 900 LINE",
"140 900 LINE"
);
},
{
closed = 1;
nodes = (
"760 0 LINE",
"880 0 LINE",
"880 900 LINE",
"760 900 LINE"
);
}
);
width = 1020;
},
{
hints = (
{
origin = "{0, 8}";
type = Corner;
name = _corner.02;
},
{
origin = "{0, 9}";
type = Corner;
name = _corner.02;
},
{
origin = "{1, 5}";
type = Corner;
name = _corner.02;
},
{
origin = "{1, 6}";
type = Corner;
name = _corner.02;
}
);
layerId = "71411993-19D9-448E-BF2F-5CFC0F6AC4B0";
paths = (
{
closed = 1;
nodes = (
"505 637 LINE",
"337 835 LINE SMOOTH",
"310 867 OFFCURVE",
"283 880 OFFCURVE",
"245 880 CURVE SMOOTH",
"187 880 OFFCURVE",
"150 858 OFFCURVE",
"150 802 CURVE SMOOTH",
"150 0 LINE",
"270 0 LINE",
"270 804 LINE",
"225 795 LINE",
"421 564 LINE SMOOTH",
"447 533 OFFCURVE",
"465 523 OFFCURVE",
"500 523 CURVE"
);
},
{
closed = 1;
nodes = (
"535 523 OFFCURVE",
"553 533 OFFCURVE",
"579 564 CURVE SMOOTH",
"775 795 LINE",
"730 804 LINE",
"730 0 LINE",
"850 0 LINE",
"850 802 LINE SMOOTH",
"850 859 OFFCURVE",
"814 880 OFFCURVE",
"754 880 CURVE SMOOTH",
"719 880 OFFCURVE",
"690 867 OFFCURVE",
"654 825 CURVE SMOOTH",
"495 637 LINE",
"500 523 LINE"
);
}
);
width = 1000;
},
{
associatedMasterId = "71411993-19D9-448E-BF2F-5CFC0F6AC4B0";
hints = (
{
origin = "{0, 7}";
type = Corner;
name = _corner.02;
},
{
origin = "{0, 8}";
type = Corner;
name = _corner.02;
},
{
origin = "{0, 18}";
type = Corner;
name = _corner.02;
},
{
origin = "{0, 19}";
type = Corner;
name = _corner.02;
}
);
layerId = "4CAB2325-5467-44CB-8DA5-B1331CE290D7";
name = "Dec 17 17, 21:35";
paths = (
{
closed = 1;
nodes = (
"298 835 LINE SMOOTH",
"269 864 OFFCURVE",
"247 878 OFFCURVE",
"221 878 CURVE SMOOTH",
"178 878 OFFCURVE",
"150 857 OFFCURVE",
"150 790 CURVE SMOOTH",
"150 0 LINE",
"270 0 LINE",
"270 711 LINE",
"447 534 LINE SMOOTH",
"477 504 OFFCURVE",
"492 495 OFFCURVE",
"520 495 CURVE SMOOTH",
"548 495 OFFCURVE",
"564 503 OFFCURVE",
"593 532 CURVE SMOOTH",
"770 711 LINE",
"770 0 LINE",
"890 0 LINE",
"890 791 LINE SMOOTH",
"890 858 OFFCURVE",
"862 878 OFFCURVE",
"819 878 CURVE SMOOTH",
"793 878 OFFCURVE",
"771 865 OFFCURVE",
"742 836 CURVE SMOOTH",
"468 558 LINE",
"583 549 LINE"
);
}
);
width = 1040;
}
);
leftMetricsKey = H;
rightMetricsKey = H;
unicode = 004D;
},
{
glyphname = N;
lastChange = "2018-01-07 12:18:03 +0000";
layers = (
{
hints = (
{
origin = "{0, 0}";
type = Corner;
name = _corner.02;
},
{
origin = "{0, 1}";
type = Corner;
name = _corner.02;
},
{
origin = "{0, 2}";
type = Corner;
name = _corner.02;
},
{
origin = "{0, 3}";
type = Corner;
name = _corner.02;
},
{
origin = "{1, 6}";
type = Corner;
name = _corner.02;
},
{
origin = "{1, 7}";
type = Corner;
name = _corner.02;
},
{
origin = "{1, 5}";
type = Corner;
name = _corner.02;
}
);
layerId = "71411993-19D9-448E-BF2F-5CFC0F6AC4B0";
paths = (
{
closed = 1;
nodes = (
"610 0 LINE",
"730 0 LINE",
"730 870 LINE",
"610 870 LINE"
);
},
{
closed = 1;
nodes = (
"717 419 LINE",
"279 850 LINE SMOOTH",
"262 866 OFFCURVE",
"252 870 OFFCURVE",
"230 870 CURVE SMOOTH",
"150 870 LINE",
"150 -6 LINE",
"270 -6 LINE",
"270 735 LINE",
"232 735 LINE",
"655 318 LINE"
);
}
);
width = 880;
}
);
leftMetricsKey = H;
rightMetricsKey = H;
unicode = 004E;
},
{
glyphname = O;
lastChange = "2018-01-07 12:16:22 +0000";
layers = (
{
background = {
paths = (
{
closed = 1;
nodes = (
"150 900 LINE",
"150 0 LINE",
"750 0 LINE",
"750 900 LINE"
);
},
{
closed = 1;
nodes = (
"300 750 LINE",
"600 750 LINE",
"600 150 LINE",
"300 150 LINE"
);
}
);
};
hints = (
{
origin = "{0, 0}";
type = Corner;
name = _corner.01;
},
{
origin = "{0, 1}";
type = Corner;
name = _corner.01;
},
{
origin = "{0, 2}";
type = Corner;
name = _corner.01;
},
{
origin = "{0, 3}";
type = Corner;
name = _corner.01;
}
);
layerId = "71411993-19D9-448E-BF2F-5CFC0F6AC4B0";
paths = (
{
closed = 1;
nodes = (
"150 870 LINE",
"150 0 LINE",
"730 0 LINE",
"730 870 LINE"
);
},
{
closed = 1;
nodes = (
"270 754 LINE",
"610 754 LINE",
"610 116 LINE",
"270 116 LINE"
);
}
);
width = 880;
}
);
unicode = 004F;
},
{
glyphname = P;
lastChange = "2018-01-07 13:23:59 +0000";
layers = (
{
hints = (
{
origin = "{0, 6}";
type = Corner;
name = _corner.01;
},
{
origin = "{0, 7}";
type = Corner;
name = _corner.01;
},
{
origin = "{0, 9}";
type = Corner;
name = _corner.02;
},
{
origin = "{0, 0}";
type = Corner;
name = _corner.02;
},
{
origin = "{0, 8}";
type = Corner;
name = _corner.02;
}
);
layerId = "71411993-19D9-448E-BF2F-5CFC0F6AC4B0";
paths = (
{
closed = 1;
nodes = (
"270 0 LINE",
"270 754 LINE",
"550 754 LINE",
"550 503 LINE",
"254 503 LINE",
"254 387 LINE",
"670 387 LINE",
"670 870 LINE",
"150 870 LINE",
"150 0 LINE"
);
}
);
width = 779;
}
);
leftMetricsKey = H;
unicode = 0050;
},
{
glyphname = Q;
lastChange = "2018-01-07 12:26:38 +0000";
layers = (
{
components = (
{
name = O;
}
);
hints = (
{
origin = "{0, 3}";
type = Corner;
name = _corner.02;
},
{
origin = "{0, 2}";
type = Corner;
name = _corner.02;
},
{
origin = "{0, 0}";
type = Corner;
name = _corner.02;
},
{
origin = "{0, 1}";
type = Corner;
name = _corner.02;
}
);
layerId = "71411993-19D9-448E-BF2F-5CFC0F6AC4B0";
paths = (
{
closed = 1;
nodes = (
"380 -130 LINE",
"500 -130 LINE",
"500 240 LINE",
"380 240 LINE"
);
}
);
width = 880;
}
);
leftMetricsKey = O;
rightMetricsKey = O;
unicode = 0051;
},
{
glyphname = R;
lastChange = "2018-01-07 12:15:05 +0000";
layers = (
{
hints = (
{
origin = "{0, 0}";
type = Corner;
name = _corner.02;
},
{
origin = "{0, 6}";
type = Corner;
name = _corner.01;
},
{
origin = "{0, 7}";
type = Corner;
name = _corner.01;
},
{
origin = "{0, 8}";
type = Corner;
name = _corner.02;
},
{
origin = "{0, 9}";
type = Corner;
name = _corner.02;
}
);
layerId = "71411993-19D9-448E-BF2F-5CFC0F6AC4B0";
paths = (
{
closed = 1;
nodes = (
"270 0 LINE",
"270 754 LINE",
"520 754 LINE",
"520 503 LINE",
"254 503 LINE",
"254 387 LINE",
"640 387 LINE",
"640 870 LINE",
"150 870 LINE",
"150 0 LINE"
);
},
{
closed = 1;
nodes = (
"332 470 LINE",
"567 20 LINE SMOOTH",
"574 6 OFFCURVE",
"585 0 OFFCURVE",
"600 0 CURVE SMOOTH",
"677 0 LINE SMOOTH",
"699 0 OFFCURVE",
"707 14 OFFCURVE",
"697 33 CURVE SMOOTH",
"462 470 LINE"
);
}
);
width = 800;
}
);
leftMetricsKey = H;
unicode = 0052;
},
{
glyphname = S;
lastChange = "2018-01-07 12:18:46 +0000";
layers = (
{
hints = (
{
origin = "{0, 22}";
type = Corner;
name = _corner.01;
},
{
origin = "{0, 23}";
type = Corner;
name = _corner.01;
},
{
origin = "{0, 8}";
type = Corner;
name = _corner.01;
},
{
origin = "{0, 9}";
type = Corner;
name = _corner.01;
},
{
origin = "{0, 21}";
type = Corner;
name = _corner.02;
},
{
origin = "{0, 20}";
type = Corner;
name = _corner.02;
},
{
origin = "{0, 7}";
type = Corner;
name = _corner.02;
},
{
origin = "{0, 6}";
type = Corner;
name = _corner.02;
}
);
layerId = "71411993-19D9-448E-BF2F-5CFC0F6AC4B0";
paths = (
{
closed = 1;
nodes = (
"293 581 LINE SMOOTH",
"269 600 OFFCURVE",
"260 623 OFFCURVE",
"260 654 CURVE SMOOTH",
"260 754 LINE",
"480 754 LINE",
"480 630 LINE",
"600 630 LINE",
"600 870 LINE",
"140 870 LINE",
"140 644 LINE SMOOTH",
"140 582 OFFCURVE",
"157 538 OFFCURVE",
"207 497 CURVE SMOOTH",
"467 284 LINE SMOOTH",
"491 265 OFFCURVE",
"500 242 OFFCURVE",
"500 211 CURVE SMOOTH",
"500 116 LINE",
"243 116 LINE",
"243 240 LINE",
"123 240 LINE",
"123 0 LINE",
"620 0 LINE",
"620 221 LINE SMOOTH",
"620 283 OFFCURVE",
"603 327 OFFCURVE",
"553 368 CURVE SMOOTH"
);
}
);
width = 743;
}
);
unicode = 0053;
},
{
glyphname = T;
lastChange = "2018-01-07 13:25:34 +0000";
layers = (
{
hints = (
{
origin = "{0, 0}";
type = Corner;
name = _corner.02;
},
{
origin = "{1, 1}";
type = Corner;
name = _corner.02;
},
{
origin = "{1, 3}";
type = Corner;
name = _corner.02;
},
{
origin = "{1, 0}";
type = Corner;
name = _corner.02;
},
{
origin = "{0, 1}";
type = Corner;
name = _corner.02;
},
{
origin = "{1, 2}";
type = Corner;
name = _corner.02;
}
);
layerId = "71411993-19D9-448E-BF2F-5CFC0F6AC4B0";
paths = (
{
closed = 1;
nodes = (
"300 0 LINE",
"420 0 LINE",
"420 810 LINE",
"300 810 LINE"
);
},
{
closed = 1;
nodes = (
"55 754 LINE",
"665 754 LINE",
"665 870 LINE",
"55 870 LINE"
);
}
);
width = 720;
}
);
unicode = 0054;
},
{
glyphname = U;
lastChange = "2018-01-07 12:18:57 +0000";
layers = (
{
hints = (
{
origin = "{0, 0}";
type = Corner;
name = _corner.01;
},
{
origin = "{0, 1}";
type = Corner;
name = _corner.01;
},
{
origin = "{0, 7}";
type = Corner;
name = _corner.02;
},
{
origin = "{0, 6}";
type = Corner;
name = _corner.02;
},
{
origin = "{0, 3}";
type = Corner;
name = _corner.02;
},
{
origin = "{0, 2}";
type = Corner;
name = _corner.02;
}
);
layerId = "71411993-19D9-448E-BF2F-5CFC0F6AC4B0";
paths = (
{
closed = 1;
nodes = (
"150 0 LINE",
"720 0 LINE",
"720 870 LINE",
"600 870 LINE",
"600 116 LINE",
"270 116 LINE",
"270 870 LINE",
"150 870 LINE"
);
}
);
width = 870;
}
);
leftMetricsKey = H;
rightMetricsKey = H;
unicode = 0055;
},
{
glyphname = V;
lastChange = "2018-01-07 13:25:07 +0000";
layers = (
{
layerId = "71411993-19D9-448E-BF2F-5CFC0F6AC4B0";
paths = (
{
closed = 1;
nodes = (
"399 60 LINE",
"422 60 LINE",
"208 846 LINE SMOOTH",
"204 862 OFFCURVE",
"192 870 OFFCURVE",
"176 870 CURVE SMOOTH",
"107 870 LINE SMOOTH",
"87 870 OFFCURVE",
"77 858 OFFCURVE",
"83 838 CURVE SMOOTH",
"301 64 LINE SMOOTH",
"318 4 OFFCURVE",
"352 -10 OFFCURVE",
"410 -10 CURVE SMOOTH",
"468 -10 OFFCURVE",
"502 4 OFFCURVE",
"519 64 CURVE SMOOTH",
"737 838 LINE SMOOTH",
"743 858 OFFCURVE",
"733 870 OFFCURVE",
"713 870 CURVE SMOOTH",
"645 870 LINE SMOOTH",
"629 870 OFFCURVE",
"617 862 OFFCURVE",
"613 846 CURVE SMOOTH"
);
}
);
width = 815;
}
);
unicode = 0056;
},
{
glyphname = W;
lastChange = "2018-01-07 13:29:43 +0000";
layers = (
{
hints = (
{
origin = "{0, 8}";
type = Corner;
name = _corner.02;
},
{
origin = "{0, 9}";
type = Corner;
name = _corner.02;
},
{
origin = "{1, 5}";
type = Corner;
name = _corner.02;
},
{
origin = "{1, 6}";
type = Corner;
name = _corner.02;
}
);
layerId = "71411993-19D9-448E-BF2F-5CFC0F6AC4B0";
paths = (
{
closed = 1;
nodes = (
"495 233 LINE",
"663 35 LINE SMOOTH",
"690 3 OFFCURVE",
"717 -10 OFFCURVE",
"755 -10 CURVE SMOOTH",
"813 -10 OFFCURVE",
"850 12 OFFCURVE",
"850 68 CURVE SMOOTH",
"850 870 LINE",
"730 870 LINE",
"730 66 LINE",
"775 75 LINE",
"579 306 LINE SMOOTH",
"553 337 OFFCURVE",
"535 347 OFFCURVE",
"500 347 CURVE"
);
},
{
closed = 1;
nodes = (
"465 347 OFFCURVE",
"447 337 OFFCURVE",
"421 306 CURVE SMOOTH",
"225 75 LINE",
"270 66 LINE",
"270 870 LINE",
"150 870 LINE",
"150 68 LINE SMOOTH",
"150 11 OFFCURVE",
"186 -10 OFFCURVE",
"246 -10 CURVE SMOOTH",
"281 -10 OFFCURVE",
"310 3 OFFCURVE",
"346 45 CURVE SMOOTH",
"505 233 LINE",
"500 347 LINE"
);
}
);
width = 1000;
}
);
leftMetricsKey = H;
rightMetricsKey = H;
unicode = 0057;
},
{
glyphname = X;
lastChange = "2018-01-07 10:49:17 +0000";
layers = (
{
layerId = "71411993-19D9-448E-BF2F-5CFC0F6AC4B0";
paths = (
{
closed = 1;
nodes = (
"318 475 LINE",
"552 20 LINE SMOOTH",
"559 6 OFFCURVE",
"570 0 OFFCURVE",
"585 0 CURVE SMOOTH",
"658 0 LINE SMOOTH",
"679 0 OFFCURVE",
"689 13 OFFCURVE",
"678 33 CURVE SMOOTH",
"413 536 LINE"
);
},
{
closed = 1;
nodes = (
"658 837 LINE SMOOTH",
"668 856 OFFCURVE",
"658 870 OFFCURVE",
"637 870 CURVE SMOOTH",
"568 870 LINE SMOOTH",
"553 870 OFFCURVE",
"543 864 OFFCURVE",
"535 849 CURVE SMOOTH",
"316 415 LINE",
"412 356 LINE"
);
},
{
closed = 1;
nodes = (
"97 33 LINE SMOOTH",
"87 13 OFFCURVE",
"96 0 OFFCURVE",
"117 0 CURVE SMOOTH",
"187 0 LINE SMOOTH",
"202 0 OFFCURVE",
"213 6 OFFCURVE",
"220 20 CURVE SMOOTH",
"454 475 LINE",
"371 560 LINE"
);
},
{
closed = 1;
nodes = (
"458 415 LINE",
"239 849 LINE SMOOTH",
"231 864 OFFCURVE",
"221 870 OFFCURVE",
"206 870 CURVE SMOOTH",
"134 870 LINE SMOOTH",
"113 870 OFFCURVE",
"104 857 OFFCURVE",
"114 837 CURVE SMOOTH",
"358 363 LINE"
);
}
);
width = 779;
}
);
unicode = 0058;
},
{
glyphname = Y;
lastChange = "2018-01-07 12:19:22 +0000";
layers = (
{
hints = (
{
origin = "{0, 0}";
type = Corner;
name = _corner.02;
},
{
origin = "{0, 1}";
type = Corner;
name = _corner.02;
}
);
layerId = "71411993-19D9-448E-BF2F-5CFC0F6AC4B0";
paths = (
{
closed = 1;
nodes = (
"304 0 LINE",
"424 0 LINE",
"424 460 LINE",
"304 460 LINE"
);
},
{
closed = 1;
nodes = (
"417 327 LINE",
"655 837 LINE SMOOTH",
"664 857 OFFCURVE",
"656 870 OFFCURVE",
"635 870 CURVE SMOOTH",
"567 870 LINE SMOOTH",
"552 870 OFFCURVE",
"540 864 OFFCURVE",
"534 850 CURVE SMOOTH",
"343 423 LINE",
"391 423 LINE",
"198 850 LINE SMOOTH",
"192 864 OFFCURVE",
"180 870 OFFCURVE",
"165 870 CURVE SMOOTH",
"95 870 LINE SMOOTH",
"74 870 OFFCURVE",
"66 857 OFFCURVE",
"75 837 CURVE SMOOTH",
"313 327 LINE"
);
}
);
width = 730;
},
{
associatedMasterId = "71411993-19D9-448E-BF2F-5CFC0F6AC4B0";
hints = (
{
origin = "{0, 0}";
type = Corner;
name = _corner.02;
},
{
origin = "{0, 1}";
type = Corner;
name = _corner.02;
},
{
origin = "{1, 1}";
type = Corner;
name = _corner.02;
},
{
origin = "{1, 2}";
type = Corner;
name = _corner.02;
},
{
origin = "{2, 0}";
type = Corner;
name = _corner.02;
},
{
origin = "{2, 1}";
type = Corner;
name = _corner.02;
}
);
layerId = "25FB8163-0761-4C69-93AB-D0A6EF1EF4A7";
name = "Nov 18 17, 22:15";
paths = (
{
closed = 1;
nodes = (
"660 900 LINE",
"529 900 LINE",
"330 431 LINE",
"415 355 LINE"
);
},
{
closed = 1;
nodes = (
"382 431 LINE",
"183 900 LINE",
"52 900 LINE",
"297 355 LINE"
);
},
{
closed = 1;
nodes = (
"296 0 LINE",
"416 0 LINE",
"416 470 LINE",
"296 470 LINE"
);
}
);
width = 712;
}
);
unicode = 0059;
},
{
glyphname = Z;
lastChange = "2018-01-07 12:19:26 +0000";
layers = (
{
hints = (
{
origin = "{0, 8}";
type = Corner;
name = _corner.02;
},
{
origin = "{0, 7}";
type = Corner;
name = _corner.02;
},
{
origin = "{0, 18}";
type = Corner;
name = _corner.02;
},
{
origin = "{0, 17}";
type = Corner;
name = _corner.02;
}
);
layerId = "71411993-19D9-448E-BF2F-5CFC0F6AC4B0";
paths = (
{
closed = 1;
nodes = (
"580 727 LINE SMOOTH",
"594 751 OFFCURVE",
"599 767 OFFCURVE",
"599 787 CURVE SMOOTH",
"599 836 OFFCURVE",
"567 870 OFFCURVE",
"500 870 CURVE SMOOTH",
"108 870 LINE",
"108 754 LINE",
"456 754 LINE",
"103 149 LINE SMOOTH",
"86 120 OFFCURVE",
"81 103 OFFCURVE",
"81 79 CURVE SMOOTH",
"81 31 OFFCURVE",
"114 0 OFFCURVE",
"181 0 CURVE SMOOTH",
"635 0 LINE",
"635 116 LINE",
"220 116 LINE"
);
}
);
width = 711;
}
);
unicode = 005A;
},
{
glyphname = a;
lastChange = "2018-01-07 12:00:13 +0000";
layers = (
{
anchors = (
{
name = bottom;
position = "{360, 0}";
},
{
name = ogonek;
position = "{648, 10}";
},
{
name = top;
position = "{365, 680}";
}
);
hints = (
{
origin = "{1, 1}";
type = Corner;
name = _corner.01;
},
{
origin = "{1, 2}";
type = Corner;
name = _corner.01;
},
{
origin = "{0, 3}";
type = Corner;
name = _corner.01;
},
{
origin = "{0, 4}";
type = Corner;
name = _corner.02;
},
{
origin = "{0, 5}";
type = Corner;
name = _corner.02;
},
{
origin = "{0, 2}";
type = Corner;
name = _corner.02;
}
);
layerId = "71411993-19D9-448E-BF2F-5CFC0F6AC4B0";
paths = (
{
closed = 1;
nodes = (
"474 566 LINE",
"474 0 LINE",
"590 0 LINE",
"590 680 LINE",
"149 680 LINE",
"149 566 LINE"
);
},
{
closed = 1;
nodes = (
"494 409 LINE",
"113 409 LINE",
"113 0 LINE",
"494 0 LINE",
"494 114 LINE",
"229 114 LINE",
"229 295 LINE",
"494 295 LINE"
);
}
);
width = 724;
}
);
rightMetricsKey = n;
unicode = 0061;
},
{
glyphname = b;
lastChange = "2018-01-07 14:04:27 +0000";
layers = (
{
hints = (
{
origin = "{0, 0}";
type = Corner;
name = _corner.02;
},
{
origin = "{0, 1}";
type = Corner;
name = _corner.02;
},
{
origin = "{1, 6}";
type = Corner;
name = _corner.01;
},
{
origin = "{1, 7}";
type = Corner;
name = _corner.01;
},
{
origin = "{0, 3}";
type = Corner;
name = _corner.02;
}
);
layerId = "71411993-19D9-448E-BF2F-5CFC0F6AC4B0";
paths = (
{
closed = 1;
nodes = (
"140 870 LINE",
"140 0 LINE",
"256 0 LINE",
"256 870 LINE"
);
},
{
closed = 1;
nodes = (
"246 680 LINE",
"246 566 LINE",
"525 566 LINE",
"525 114 LINE",
"246 114 LINE",
"246 0 LINE",
"641 0 LINE",
"641 680 LINE"
);
}
);
width = 761;
}
);
leftMetricsKey = n;
rightMetricsKey = o;
unicode = 0062;
},
{
glyphname = c;
lastChange = "2018-01-07 12:14:52 +0000";
layers = (
{
anchors = (
{
name = bottom;
position = "{310, 0}";
},
{
name = top;
position = "{345, 680}";
}
);
hints = (
{
origin = "{0, 0}";
type = Corner;
name = _corner.01;
},
{
origin = "{0, 7}";
type = Corner;
name = _corner.01;
},
{
origin = "{0, 2}";
type = Corner;
name = _corner.02;
},
{
origin = "{0, 5}";
type = Corner;
name = _corner.02;
},
{
origin = "{0, 6}";
type = Corner;
name = _corner.02;
},
{
origin = "{0, 1}";
type = Corner;
name = _corner.02;
}
);
layerId = "71411993-19D9-448E-BF2F-5CFC0F6AC4B0";
paths = (
{
closed = 1;
nodes = (
"120 0 LINE",
"559 0 LINE",
"559 114 LINE",
"236 114 LINE",
"236 566 LINE",
"559 566 LINE",
"559 680 LINE",
"120 680 LINE"
);
}
);
width = 639;
}
);
leftMetricsKey = o;
unicode = 0063;
},
{
glyphname = d;
lastChange = "2018-01-07 14:04:29 +0000";
layers = (
{
hints = (
{
origin = "{0, 2}";
type = Corner;
name = _corner.02;
},
{
origin = "{0, 1}";
type = Corner;
name = _corner.02;
},
{
origin = "{0, 3}";
type = Corner;
name = _corner.02;
},
{
origin = "{1, 0}";
type = Corner;
name = _corner.01;
},
{
origin = "{1, 7}";
type = Corner;
name = _corner.01;
}
);
layerId = "71411993-19D9-448E-BF2F-5CFC0F6AC4B0";
paths = (
{
closed = 1;
nodes = (
"505 0 LINE",
"621 0 LINE",
"621 870 LINE",
"505 870 LINE"
);
},
{
closed = 1;
nodes = (
"120 0 LINE",
"515 0 LINE",
"515 114 LINE",
"236 114 LINE",
"236 566 LINE",
"515 566 LINE",
"515 680 LINE",
"120 680 LINE"
);
}
);
width = 761;
}
);
leftMetricsKey = o;
rightMetricsKey = "=|n";
unicode = 0064;
},
{
glyphname = e;
lastChange = "2018-01-07 14:03:53 +0000";
layers = (
{
anchors = (
{
name = bottom;
position = "{357, 0}";
},
{
name = ogonek;
position = "{647, 10}";
},
{
name = top;
position = "{357, 680}";
}
);
hints = (
{
origin = "{0, 7}";
type = Corner;
name = _corner.01;
},
{
origin = "{0, 8}";
type = Corner;
name = _corner.01;
},
{
origin = "{0, 6}";
type = Corner;
name = _corner.01;
},
{
origin = "{0, 5}";
type = Corner;
name = _corner.02;
},
{
origin = "{0, 10}";
type = Corner;
name = _corner.02;
},
{
origin = "{0, 9}";
type = Corner;
name = _corner.02;
}
);
layerId = "71411993-19D9-448E-BF2F-5CFC0F6AC4B0";
paths = (
{
closed = 1;
nodes = (
"236 566 LINE",
"477 566 LINE",
"477 395 LINE",
"224 395 LINE",
"224 281 LINE",
"593 281 LINE",
"593 680 LINE",
"120 680 LINE",
"120 0 LINE",
"589 0 LINE",
"589 112 LINE",
"236 112 LINE"
);
}
);
width = 717;
}
);
leftMetricsKey = o;
unicode = 0065;
},
{
glyphname = f;
lastChange = "2018-01-07 12:06:35 +0000";
layers = (
{
hints = (
{
origin = "{0, 3}";
type = Corner;
name = _corner.02;
},
{
origin = "{0, 2}";
type = Corner;
name = _corner.02;
},
{
origin = "{0, 1}";
type = Corner;
name = _corner.01;
},
{
origin = "{0, 0}";
type = Corner;
name = _corner.02;
},
{
origin = "{0, 5}";
type = Corner;
name = _corner.02;
},
{
origin = "{1, 0}";
type = Corner;
name = _corner.02;
},
{
origin = "{1, 1}";
type = Corner;
name = _corner.02;
},
{
origin = "{1, 2}";
type = Corner;
name = _corner.02;
},
{
origin = "{1, 3}";
type = Corner;
name = _corner.02;
}
);
layerId = "71411993-19D9-448E-BF2F-5CFC0F6AC4B0";
paths = (
{
closed = 1;
nodes = (
"446 870 LINE",
"172 870 LINE",
"172 0 LINE",
"288 0 LINE",
"288 756 LINE",
"446 756 LINE"
);
},
{
closed = 1;
nodes = (
"65 566 LINE",
"446 566 LINE",
"446 680 LINE",
"65 680 LINE"
);
}
);
width = 515;
}
);
unicode = 0066;
},
{
glyphname = g;
lastChange = "2018-01-07 12:11:17 +0000";
layers = (
{
hints = (
{
origin = "{0, 4}";
type = Corner;
name = _corner.01;
},
{
origin = "{0, 0}";
type = Corner;
name = _corner.01;
},
{
origin = "{0, 11}";
type = Corner;
name = _corner.01;
},
{
origin = "{0, 10}";
type = Corner;
name = _corner.01;
},
{
origin = "{0, 9}";
type = Corner;
name = _corner.01;
},
{
origin = "{0, 7}";
type = Corner;
name = _corner.01;
},
{
origin = "{0, 6}";
type = Corner;
name = _corner.01;
},
{
origin = "{0, 2}";
type = Corner;
name = _corner.02;
},
{
origin = "{0, 3}";
type = Corner;
name = _corner.02;
}
);
layerId = "71411993-19D9-448E-BF2F-5CFC0F6AC4B0";
paths = (
{
closed = 1;
nodes = (
"586 324 LINE",
"586 566 LINE",
"658 566 LINE",
"658 680 LINE",
"191 680 LINE",
"191 428 LINE",
"75 428 LINE",
"75 132 LINE",
"191 132 LINE",
"191 -130 LINE",
"656 -130 LINE",
"656 236 LINE",
"187 236 LINE",
"187 324 LINE"
);
},
{
closed = 1;
nodes = (
"474 576 LINE",
"474 424 LINE",
"303 424 LINE",
"303 576 LINE"
);
},
{
closed = 1;
nodes = (
"303 -26 LINE",
"303 132 LINE",
"544 132 LINE",
"544 -26 LINE"
);
}
);
width = 764;
},
{
associatedMasterId = "71411993-19D9-448E-BF2F-5CFC0F6AC4B0";
hints = (
{
origin = "{0, 3}";
type = Corner;
name = _corner.01;
},
{
origin = "{1, 2}";
type = Corner;
name = _corner.01;
},
{
origin = "{1, 3}";
type = Corner;
name = _corner.01;
},
{
origin = "{2, 2}";
type = Corner;
name = _corner.01;
},
{
origin = "{3, 2}";
type = Corner;
name = _corner.01;
},
{
origin = "{5, 1}";
type = Corner;
name = _corner.02;
},
{
origin = "{5, 2}";
type = Corner;
name = _corner.02;
},
{
origin = "{4, 0}";
type = Corner;
name = _corner.01;
}
);
layerId = "E22AF04C-297C-465F-8B5B-E95F3572316D";
name = "Dec 16 17, 22:22";
paths = (
{
closed = 1;
nodes = (
"350 -18 LINE",
"350 104 LINE",
"230 104 LINE",
"230 -130 LINE",
"505 -130 LINE",
"505 -18 LINE"
);
},
{
closed = 1;
nodes = (
"505 84 LINE",
"505 -130 LINE",
"625 -130 LINE",
"625 200 LINE",
"230 200 LINE",
"230 84 LINE"
);
},
{
closed = 1;
nodes = (
"230 346 LINE",
"230 540 LINE",
"110 540 LINE",
"110 238 LINE",
"365 238 LINE",
"365 346 LINE"
);
},
{
closed = 1;
nodes = (
"365 432 LINE",
"365 238 LINE",
"485 238 LINE",
"485 540 LINE",
"230 540 LINE",
"230 432 LINE"
);
},
{
closed = 1;
nodes = (
"110 84 LINE",
"230 84 LINE",
"230 274 LINE",
"110 274 LINE"
);
},
{
closed = 1;
nodes = (
"466 424 LINE",
"557 424 LINE",
"557 540 LINE",
"466 540 LINE"
);
}
);
width = 700;
}
);
unicode = 0067;
},
{
glyphname = h;
lastChange = "2018-01-07 11:44:43 +0000";
layers = (
{
hints = (
{
origin = "{0, 0}";
type = Corner;
name = _corner.02;
},
{
origin = "{0, 1}";
type = Corner;
name = _corner.02;
},
{
origin = "{0, 2}";
type = Corner;
name = _corner.02;
},
{
origin = "{1, 1}";
type = Corner;
name = _corner.02;
},
{
origin = "{1, 2}";
type = Corner;
name = _corner.02;
},
{
origin = "{1, 3}";
type = Corner;
name = _corner.01;
},
{
origin = "{0, 3}";
type = Corner;
name = _corner.02;
}
);
layerId = "71411993-19D9-448E-BF2F-5CFC0F6AC4B0";
paths = (
{
closed = 1;
nodes = (
"140 870 LINE",
"140 0 LINE",
"256 0 LINE",
"256 870 LINE"
);
},
{
closed = 1;
nodes = (
"530 566 LINE",
"530 0 LINE",
"646 0 LINE",
"646 680 LINE",
"216 680 LINE",
"216 566 LINE"
);
}
);
width = 780;
}
);
rightMetricsKey = n;
unicode = 0068;
},
{
glyphname = jdotless;
lastChange = "2018-01-07 11:45:09 +0000";
layers = (
{
anchors = (
{
name = bottom;
position = "{210, 0}";
},
{
name = top;
position = "{219, 680}";
}
);
hints = (
{
origin = "{0, 5}";
type = Corner;
name = _corner.02;
},
{
origin = "{0, 0}";
type = Corner;
name = _corner.02;
},
{
origin = "{0, 2}";
type = Corner;
name = _corner.02;
},
{
origin = "{0, 3}";
type = Corner;
name = _corner.02;
},
{
origin = "{0, 1}";
type = Corner;
name = _corner.01;
}
);
layerId = "71411993-19D9-448E-BF2F-5CFC0F6AC4B0";
paths = (
{
closed = 1;
nodes = (
"15 -100 LINE",
"279 -100 LINE",
"279 680 LINE",
"163 680 LINE",
"163 14 LINE",
"15 14 LINE"
);
}
);
width = 419;
}
);
rightMetricsKey = "=|n";
unicode = 0237;
},
{
glyphname = k;
lastChange = "2018-01-07 12:05:35 +0000";
layers = (
{
hints = (
{
origin = "{0, 1}";
type = Corner;
name = _corner.02;
},
{
origin = "{0, 2}";
type = Corner;
name = _corner.02;
},
{
origin = "{0, 3}";
type = Corner;
name = _corner.02;
},
{
origin = "{0, 0}";
type = Corner;
name = _corner.02;
}
);
layerId = "71411993-19D9-448E-BF2F-5CFC0F6AC4B0";
paths = (
{
closed = 1;
nodes = (
"140 0 LINE",
"256 0 LINE",
"256 870 LINE",
"140 870 LINE"
);
},
{
closed = 1;
nodes = (
"523 20 LINE SMOOTH",
"531 6 OFFCURVE",
"541 0 OFFCURVE",
"556 0 CURVE SMOOTH",
"629 0 LINE SMOOTH",
"650 0 OFFCURVE",
"660 14 OFFCURVE",
"649 33 CURVE SMOOTH",
"451 370 LINE",
"342 331 LINE"
);
},
{
closed = 1;
nodes = (
"617 647 LINE SMOOTH",
"628 667 OFFCURVE",
"618 680 OFFCURVE",
"597 680 CURVE SMOOTH",
"526 680 LINE SMOOTH",
"511 680 OFFCURVE",
"501 674 OFFCURVE",
"493 659 CURVE SMOOTH",
"337 363 LINE",
"439 314 LINE"
);
},
{
closed = 1;
nodes = (
"233 293 LINE",
"415 293 LINE",
"413 407 LINE",
"233 407 LINE"
);
}
);
width = 724;
}
);
leftMetricsKey = n;
unicode = 006B;
},
{
glyphname = l;
lastChange = "2018-01-07 12:05:42 +0000";
layers = (
{
hints = (
{
origin = "{0, 2}";
type = Corner;
name = _corner.02;
},
{
origin = "{0, 3}";
type = Corner;
name = _corner.02;
},
{
origin = "{1, 1}";
type = Corner;
name = _corner.02;
},
{
origin = "{1, 2}";
type = Corner;
name = _corner.02;
},
{
origin = "{0, 0}";
type = Corner;
name = _corner.01;
}
);
layerId = "71411993-19D9-448E-BF2F-5CFC0F6AC4B0";
paths = (
{
closed = 1;
nodes = (
"140 0 LINE",
"256 0 LINE",
"256 870 LINE",
"140 870 LINE"
);
},
{
closed = 1;
nodes = (
"256 0 LINE",
"380 0 LINE",
"380 114 LINE",
"256 114 LINE"
);
}
);
width = 460;
}
);
leftMetricsKey = n;
unicode = 006C;
},
{
glyphname = m;
lastChange = "2018-01-07 13:26:33 +0000";
layers = (
{
hints = (
{
origin = "{0, 0}";
type = Corner;
name = _corner.02;
},
{
origin = "{0, 1}";
type = Corner;
name = _corner.02;
},
{
origin = "{0, 2}";
type = Corner;
name = _corner.02;
},
{
origin = "{1, 1}";
type = Corner;
name = _corner.02;
},
{
origin = "{1, 2}";
type = Corner;
name = _corner.02;
},
{
origin = "{2, 1}";
type = Corner;
name = _corner.02;
},
{
origin = "{2, 2}";
type = Corner;
name = _corner.02;
},
{
origin = "{2, 3}";
type = Corner;
name = _corner.01;
}
);
layerId = "71411993-19D9-448E-BF2F-5CFC0F6AC4B0";
paths = (
{
closed = 1;
nodes = (
"140 680 LINE",
"140 0 LINE",
"256 0 LINE",
"256 680 LINE"
);
},
{
closed = 1;
nodes = (
"440 566 LINE",
"440 0 LINE",
"556 0 LINE",
"556 680 LINE",
"216 680 LINE",
"216 566 LINE"
);
},
{
closed = 1;
nodes = (
"740 566 LINE",
"740 0 LINE",
"856 0 LINE",
"856 680 LINE",
"516 680 LINE",
"516 566 LINE"
);
}
);
width = 990;
}
);
leftMetricsKey = n;
rightMetricsKey = n;
unicode = 006D;
},
{
glyphname = n;
lastChange = "2018-01-07 12:03:00 +0000";
layers = (
{
hints = (
{
origin = "{0, 0}";
type = Corner;
name = _corner.02;
},
{
origin = "{0, 1}";
type = Corner;
name = _corner.02;
},
{
origin = "{1, 1}";
type = Corner;
name = _corner.02;
},
{
origin = "{1, 2}";
type = Corner;
name = _corner.02;
},
{
origin = "{0, 2}";
type = Corner;
name = _corner.02;
},
{
origin = "{1, 3}";
type = Corner;
name = _corner.01;
}
);
layerId = "71411993-19D9-448E-BF2F-5CFC0F6AC4B0";
paths = (
{
closed = 1;
nodes = (
"140 680 LINE",
"140 0 LINE",
"256 0 LINE",
"256 680 LINE"
);
},
{
closed = 1;
nodes = (
"530 566 LINE",
"530 0 LINE",
"646 0 LINE",
"646 680 LINE",
"216 680 LINE",
"216 566 LINE"
);
}
);
width = 780;
}
);
unicode = 006E;
},
{
glyphname = o;
lastChange = "2018-01-07 14:03:53 +0000";
layers = (
{
anchors = (
{
name = bottom;
position = "{378, 0}";
},
{
name = center;
position = "{378, 340}";
},
{
name = ogonek;
position = "{683, 10}";
},
{
name = top;
position = "{378, 680}";
},
{
name = topright;
position = "{740, 680}";
}
);
hints = (
{
origin = "{0, 0}";
type = Corner;
name = _corner.01;
},
{
origin = "{0, 1}";
type = Corner;
name = _corner.01;
},
{
origin = "{0, 2}";
type = Corner;
name = _corner.01;
},
{
origin = "{0, 3}";
type = Corner;
name = _corner.01;
}
);
layerId = "71411993-19D9-448E-BF2F-5CFC0F6AC4B0";
paths = (
{
closed = 1;
nodes = (
"120 680 LINE",
"120 0 LINE",
"625 0 LINE",
"625 680 LINE"
);
},
{
closed = 1;
nodes = (
"236 114 LINE",
"236 566 LINE",
"509 566 LINE",
"509 114 LINE"
);
}
);
width = 745;
}
);
unicode = 006F;
},
{
glyphname = p;
lastChange = "2018-01-07 14:04:21 +0000";
layers = (
{
hints = (
{
origin = "{0, 0}";
type = Corner;
name = _corner.02;
},
{
origin = "{0, 1}";
type = Corner;
name = _corner.02;
},
{
origin = "{1, 6}";
type = Corner;
name = _corner.01;
},
{
origin = "{1, 7}";
type = Corner;
name = _corner.01;
},
{
origin = "{0, 2}";
type = Corner;
name = _corner.02;
}
);
layerId = "71411993-19D9-448E-BF2F-5CFC0F6AC4B0";
paths = (
{
closed = 1;
nodes = (
"140 680 LINE",
"140 -130 LINE",
"256 -130 LINE",
"256 680 LINE"
);
},
{
closed = 1;
nodes = (
"246 680 LINE",
"246 566 LINE",
"525 566 LINE",
"525 114 LINE",
"246 114 LINE",
"246 0 LINE",
"641 0 LINE",
"641 680 LINE"
);
}
);
width = 761;
}
);
leftMetricsKey = n;
rightMetricsKey = o;
unicode = 0070;
},
{
glyphname = q;
lastChange = "2018-01-07 14:04:24 +0000";
layers = (
{
hints = (
{
origin = "{0, 2}";
type = Corner;
name = _corner.02;
},
{
origin = "{0, 1}";
type = Corner;
name = _corner.02;
},
{
origin = "{0, 0}";
type = Corner;
name = _corner.02;
},
{
origin = "{1, 0}";
type = Corner;
name = _corner.01;
},
{
origin = "{1, 7}";
type = Corner;
name = _corner.01;
}
);
layerId = "71411993-19D9-448E-BF2F-5CFC0F6AC4B0";
paths = (
{
closed = 1;
nodes = (
"505 -130 LINE",
"621 -130 LINE",
"621 680 LINE",
"505 680 LINE"
);
},
{
closed = 1;
nodes = (
"120 0 LINE",
"515 0 LINE",
"515 114 LINE",
"236 114 LINE",
"236 566 LINE",
"515 566 LINE",
"515 680 LINE",
"120 680 LINE"
);
}
);
width = 761;
}
);
leftMetricsKey = o;
rightMetricsKey = "=|n";
unicode = 0071;
},
{
glyphname = r;
lastChange = "2018-01-07 12:05:59 +0000";
layers = (
{
anchors = (
{
name = bottom;
position = "{270, 0}";
},
{
name = top;
position = "{300, 680}";
}
);
hints = (
{
origin = "{0, 1}";
type = Corner;
name = _corner.02;
},
{
origin = "{0, 2}";
type = Corner;
name = _corner.02;
},
{
origin = "{1, 1}";
type = Corner;
name = _corner.02;
},
{
origin = "{1, 2}";
type = Corner;
name = _corner.02;
},
{
origin = "{0, 0}";
type = Corner;
name = _corner.01;
}
);
layerId = "71411993-19D9-448E-BF2F-5CFC0F6AC4B0";
paths = (
{
closed = 1;
nodes = (
"140 680 LINE",
"140 0 LINE",
"256 0 LINE",
"256 680 LINE"
);
},
{
closed = 1;
nodes = (
"256 566 LINE",
"462 566 LINE",
"462 680 LINE",
"256 680 LINE"
);
}
);
width = 527;
}
);
leftMetricsKey = n;
unicode = 0072;
},
{
glyphname = s;
lastChange = "2018-01-07 11:48:21 +0000";
layers = (
{
anchors = (
{
name = bottom;
position = "{344, 0}";
},
{
name = top;
position = "{344, 680}";
}
);
hints = (
{
origin = "{0, 3}";
type = Corner;
name = _corner.01;
},
{
origin = "{0, 4}";
type = Corner;
name = _corner.01;
},
{
origin = "{0, 10}";
type = Corner;
name = _corner.01;
},
{
origin = "{0, 9}";
type = Corner;
name = _corner.01;
},
{
origin = "{0, 7}";
type = Corner;
name = _corner.02;
},
{
origin = "{0, 8}";
type = Corner;
name = _corner.02;
},
{
origin = "{0, 1}";
type = Corner;
name = _corner.02;
},
{
origin = "{0, 2}";
type = Corner;
name = _corner.02;
}
);
layerId = "71411993-19D9-448E-BF2F-5CFC0F6AC4B0";
paths = (
{
closed = 1;
nodes = (
"246 566 LINE",
"551 566 LINE",
"551 680 LINE",
"130 680 LINE",
"130 285 LINE",
"448 285 LINE",
"448 114 LINE",
"123 114 LINE",
"123 0 LINE",
"564 0 LINE",
"564 399 LINE",
"246 399 LINE"
);
}
);
width = 688;
}
);
unicode = 0073;
},
{
glyphname = t;
lastChange = "2018-01-07 12:24:51 +0000";
layers = (
{
hints = (
{
origin = "{0, 1}";
type = Corner;
name = _corner.02;
},
{
origin = "{0, 2}";
type = Corner;
name = _corner.02;
},
{
origin = "{0, 3}";
type = Corner;
name = _corner.01;
},
{
origin = "{0, 5}";
type = Corner;
name = _corner.02;
},
{
origin = "{0, 4}";
type = Corner;
name = _corner.02;
},
{
origin = "{1, 3}";
type = Corner;
name = _corner.02;
},
{
origin = "{1, 0}";
type = Corner;
name = _corner.02;
},
{
origin = "{1, 1}";
type = Corner;
name = _corner.02;
},
{
origin = "{1, 2}";
type = Corner;
name = _corner.02;
}
);
layerId = "71411993-19D9-448E-BF2F-5CFC0F6AC4B0";
paths = (
{
closed = 1;
nodes = (
"314 114 LINE",
"314 870 LINE",
"198 870 LINE",
"198 0 LINE",
"522 0 LINE",
"522 114 LINE"
);
},
{
closed = 1;
nodes = (
"91 566 LINE",
"516 566 LINE",
"516 680 LINE",
"91 680 LINE"
);
}
);
width = 608;
}
);
unicode = 0074;
},
{
glyphname = u;
lastChange = "2018-01-07 11:48:58 +0000";
layers = (
{
anchors = (
{
name = bottom;
position = "{390, 0}";
},
{
name = ogonek;
position = "{702, 10}";
},
{
name = top;
position = "{385, 680}";
},
{
name = topright;
position = "{760, 680}";
}
);
hints = (
{
origin = "{0, 3}";
type = Corner;
name = _corner.02;
},
{
origin = "{0, 2}";
type = Corner;
name = _corner.02;
},
{
origin = "{0, 1}";
type = Corner;
name = _corner.01;
},
{
origin = "{1, 3}";
type = Corner;
name = _corner.01;
},
{
origin = "{1, 2}";
type = Corner;
name = _corner.02;
},
{
origin = "{1, 1}";
type = Corner;
name = _corner.02;
}
);
layerId = "71411993-19D9-448E-BF2F-5CFC0F6AC4B0";
paths = (
{
closed = 1;
nodes = (
"406 0 LINE",
"646 0 LINE",
"646 680 LINE",
"530 680 LINE",
"530 114 LINE",
"406 114 LINE"
);
},
{
closed = 1;
nodes = (
"256 114 LINE",
"256 680 LINE",
"140 680 LINE",
"140 0 LINE",
"430 0 LINE",
"430 114 LINE"
);
}
);
width = 780;
}
);
leftMetricsKey = "=|n";
rightMetricsKey = "=|n";
unicode = 0075;
},
{
glyphname = v;
lastChange = "2018-01-07 12:06:49 +0000";
layers = (
{
associatedMasterId = "71411993-19D9-448E-BF2F-5CFC0F6AC4B0";
hints = (
{
origin = "{0, 4}";
type = Corner;
name = _corner.02;
},
{
origin = "{0, 5}";
type = Corner;
name = _corner.02;
},
{
origin = "{1, 13}";
type = Corner;
name = _corner.02;
},
{
origin = "{1, 12}";
type = Corner;
name = _corner.02;
}
);
layerId = "4486114C-8487-4F03-8E57-FCB2ED9A89CE";
name = "Jan 7 18, 20:49";
paths = (
{
closed = 1;
nodes = (
"229 505 LINE SMOOTH",
"222 532 OFFCURVE",
"220 551 OFFCURVE",
"220 578 CURVE SMOOTH",
"220 680 LINE",
"100 680 LINE",
"100 595 LINE SMOOTH",
"100 541 OFFCURVE",
"105 502 OFFCURVE",
"118 450 CURVE SMOOTH",
"208 103 LINE SMOOTH",
"226 33 OFFCURVE",
"270 0 OFFCURVE",
"341 0 CURVE SMOOTH",
"381 0 LINE",
"381 116 LINE",
"345 116 OFFCURVE",
"326 125 OFFCURVE",
"315 168 CURVE SMOOTH"
);
},
{
closed = 1;
nodes = (
"436 125 OFFCURVE",
"417 116 OFFCURVE",
"381 116 CURVE",
"381 0 LINE",
"421 0 LINE SMOOTH",
"492 0 OFFCURVE",
"536 33 OFFCURVE",
"554 103 CURVE SMOOTH",
"644 450 LINE SMOOTH",
"657 502 OFFCURVE",
"662 541 OFFCURVE",
"662 595 CURVE SMOOTH",
"662 680 LINE",
"542 680 LINE",
"542 578 LINE SMOOTH",
"542 551 OFFCURVE",
"540 532 OFFCURVE",
"533 505 CURVE SMOOTH",
"447 168 LINE SMOOTH"
);
}
);
width = 762;
},
{
layerId = "71411993-19D9-448E-BF2F-5CFC0F6AC4B0";
paths = (
{
closed = 1;
nodes = (
"412 -10 OFFCURVE",
"444 7 OFFCURVE",
"465 73 CURVE SMOOTH",
"649 648 LINE SMOOTH",
"655 668 OFFCURVE",
"645 680 OFFCURVE",
"625 680 CURVE SMOOTH",
"558 680 LINE SMOOTH",
"542 680 OFFCURVE",
"531 672 OFFCURVE",
"526 656 CURVE SMOOTH",
"346 68 LINE",
"366 68 LINE",
"195 656 LINE SMOOTH",
"190 672 OFFCURVE",
"179 680 OFFCURVE",
"163 680 CURVE SMOOTH",
"96 680 LINE SMOOTH",
"76 680 OFFCURVE",
"66 668 OFFCURVE",
"72 648 CURVE SMOOTH",
"246 73 LINE SMOOTH",
"266 7 OFFCURVE",
"296 -10 OFFCURVE",
"355 -10 CURVE SMOOTH"
);
}
);
width = 721;
}
);
unicode = 0076;
},
{
glyphname = w;
lastChange = "2018-01-07 12:07:01 +0000";
layers = (
{
anchors = (
{
name = bottom;
position = "{440, 0}";
},
{
name = top;
position = "{440, 680}";
}
);
hints = (
{
origin = "{0, 8}";
type = Corner;
name = _corner.02;
},
{
origin = "{0, 9}";
type = Corner;
name = _corner.02;
},
{
origin = "{0, 21}";
type = Corner;
name = _corner.02;
},
{
origin = "{0, 22}";
type = Corner;
name = _corner.02;
}
);
layerId = "71411993-19D9-448E-BF2F-5CFC0F6AC4B0";
paths = (
{
closed = 1;
nodes = (
"389 236 LINE",
"593 32 LINE SMOOTH",
"622 3 OFFCURVE",
"646 -10 OFFCURVE",
"675 -10 CURVE SMOOTH",
"714 -10 OFFCURVE",
"740 2 OFFCURVE",
"740 59 CURVE SMOOTH",
"740 680 LINE",
"624 680 LINE",
"624 105 LINE",
"658 115 LINE",
"513 263 LINE SMOOTH",
"485 292 OFFCURVE",
"468 300 OFFCURVE",
"440 300 CURVE SMOOTH",
"412 300 OFFCURVE",
"397 291 OFFCURVE",
"367 261 CURVE SMOOTH",
"222 116 LINE",
"256 105 LINE",
"256 680 LINE",
"140 680 LINE",
"140 62 LINE SMOOTH",
"140 5 OFFCURVE",
"165 -11 OFFCURVE",
"205 -11 CURVE SMOOTH",
"234 -11 OFFCURVE",
"261 3 OFFCURVE",
"290 32 CURVE SMOOTH",
"505 245 LINE"
);
}
);
width = 880;
}
);
leftMetricsKey = n;
rightMetricsKey = "=|n";
unicode = 0077;
},
{
glyphname = x;
lastChange = "2018-01-07 12:07:06 +0000";
layers = (
{
layerId = "71411993-19D9-448E-BF2F-5CFC0F6AC4B0";
paths = (
{
closed = 1;
nodes = (
"291 400 LINE",
"79 33 LINE SMOOTH",
"68 13 OFFCURVE",
"78 0 OFFCURVE",
"99 0 CURVE SMOOTH",
"163 0 LINE SMOOTH",
"178 0 OFFCURVE",
"188 6 OFFCURVE",
"196 20 CURVE SMOOTH",
"343 284 LINE"
);
},
{
closed = 1;
nodes = (
"363 391 LINE",
"213 659 LINE SMOOTH",
"205 674 OFFCURVE",
"195 680 OFFCURVE",
"180 680 CURVE SMOOTH",
"112 680 LINE SMOOTH",
"91 680 OFFCURVE",
"81 666 OFFCURVE",
"92 647 CURVE SMOOTH",
"295 298 LINE"
);
},
{
closed = 1;
nodes = (
"475 20 LINE SMOOTH",
"483 6 OFFCURVE",
"493 0 OFFCURVE",
"508 0 CURVE SMOOTH",
"574 0 LINE SMOOTH",
"595 0 OFFCURVE",
"606 13 OFFCURVE",
"594 33 CURVE SMOOTH",
"375 400 LINE",
"238 427 LINE"
);
},
{
closed = 1;
nodes = (
"569 647 LINE SMOOTH",
"580 667 OFFCURVE",
"570 680 OFFCURVE",
"549 680 CURVE SMOOTH",
"481 680 LINE SMOOTH",
"466 680 OFFCURVE",
"456 674 OFFCURVE",
"448 659 CURVE SMOOTH",
"301 389 LINE",
"370 296 LINE"
);
}
);
width = 670;
}
);
unicode = 0078;
},
{
glyphname = y;
lastChange = "2018-01-07 12:07:12 +0000";
layers = (
{
anchors = (
{
name = bottom;
position = "{361, 0}";
},
{
name = top;
position = "{361, 680}";
}
);
layerId = "71411993-19D9-448E-BF2F-5CFC0F6AC4B0";
paths = (
{
closed = 1;
nodes = (
"386 99 LINE",
"195 656 LINE SMOOTH",
"190 672 OFFCURVE",
"179 680 OFFCURVE",
"163 680 CURVE SMOOTH",
"96 680 LINE SMOOTH",
"76 680 OFFCURVE",
"65 668 OFFCURVE",
"72 648 CURVE SMOOTH",
"246 159 LINE SMOOTH",
"267 100 OFFCURVE",
"286 91 OFFCURVE",
"385 91 CURVE"
);
},
{
closed = 1;
nodes = (
"331 94 LINE",
"261 -98 LINE SMOOTH",
"254 -118 OFFCURVE",
"265 -130 OFFCURVE",
"285 -130 CURVE SMOOTH",
"346 -130 LINE SMOOTH",
"362 -130 OFFCURVE",
"372 -122 OFFCURVE",
"378 -106 CURVE SMOOTH",
"649 648 LINE SMOOTH",
"656 668 OFFCURVE",
"645 680 OFFCURVE",
"625 680 CURVE SMOOTH",
"558 680 LINE SMOOTH",
"542 680 OFFCURVE",
"531 672 OFFCURVE",
"526 656 CURVE SMOOTH",
"334 99 LINE"
);
}
);
width = 721;
}
);
unicode = 0079;
},
{
glyphname = z;
lastChange = "2018-01-07 11:51:08 +0000";
layers = (
{
hints = (
{
origin = "{0, 7}";
type = Corner;
name = _corner.02;
},
{
origin = "{0, 8}";
type = Corner;
name = _corner.02;
},
{
origin = "{0, 18}";
type = Corner;
name = _corner.02;
},
{
origin = "{0, 19}";
type = Corner;
name = _corner.02;
}
);
layerId = "71411993-19D9-448E-BF2F-5CFC0F6AC4B0";
paths = (
{
closed = 1;
nodes = (
"524 537 LINE SMOOTH",
"550 578 OFFCURVE",
"560 601 OFFCURVE",
"560 623 CURVE SMOOTH",
"560 661 OFFCURVE",
"540 680 OFFCURVE",
"494 680 CURVE SMOOTH",
"124 680 LINE",
"124 566 LINE",
"455 566 LINE",
"429 610 LINE",
"143 143 LINE SMOOTH",
"118 101 OFFCURVE",
"110 83 OFFCURVE",
"110 61 CURVE SMOOTH",
"110 21 OFFCURVE",
"137 0 OFFCURVE",
"187 0 CURVE SMOOTH",
"591 0 LINE",
"591 114 LINE",
"208 114 LINE",
"233 70 LINE"
);
}
);
width = 673;
}
);
unicode = 007A;
},
{
glyphname = zero;
lastChange = "2018-01-07 13:34:22 +0000";
layers = (
{
hints = (
{
origin = "{0, 0}";
type = Corner;
name = _corner.01;
},
{
origin = "{0, 1}";
type = Corner;
name = _corner.01;
},
{
origin = "{0, 2}";
type = Corner;
name = _corner.01;
},
{
origin = "{0, 3}";
type = Corner;
name = _corner.01;
}
);
layerId = "71411993-19D9-448E-BF2F-5CFC0F6AC4B0";
paths = (
{
closed = 1;
nodes = (
"150 870 LINE",
"150 0 LINE",
"690 0 LINE",
"690 870 LINE"
);
},
{
closed = 1;
nodes = (
"270 754 LINE",
"570 754 LINE",
"570 116 LINE",
"270 116 LINE"
);
},
{
closed = 1;
nodes = (
"239 179 LINE",
"601 541 LINE",
"601 691 LINE",
"239 329 LINE"
);
}
);
width = 840;
}
);
leftMetricsKey = O;
rightMetricsKey = O;
unicode = 0030;
},
{
glyphname = one;
lastChange = "2018-01-07 13:31:44 +0000";
layers = (
{
hints = (
{
origin = "{1, 3}";
type = Corner;
name = _corner.02;
},
{
origin = "{1, 0}";
type = Corner;
name = _corner.02;
},
{
origin = "{0, 2}";
type = Corner;
name = _corner.02;
},
{
origin = "{0, 3}";
type = Corner;
name = _corner.02;
},
{
origin = "{0, 0}";
type = Corner;
name = _corner.02;
},
{
origin = "{0, 1}";
type = Corner;
name = _corner.02;
}
);
layerId = "71411993-19D9-448E-BF2F-5CFC0F6AC4B0";
paths = (
{
closed = 1;
nodes = (
"288 0 LINE",
"408 0 LINE",
"408 870 LINE",
"288 870 LINE"
);
},
{
closed = 1;
nodes = (
"108 630 LINE",
"288 630 LINE",
"288 750 LINE",
"108 750 LINE"
);
}
);
width = 578;
}
);
unicode = 0031;
},
{
glyphname = two;
lastChange = "2018-01-07 13:34:00 +0000";
layers = (
{
hints = (
{
origin = "{0, 15}";
type = Corner;
name = _corner.02;
},
{
origin = "{0, 14}";
type = Corner;
name = _corner.02;
},
{
origin = "{0, 13}";
type = Corner;
name = _corner.01;
},
{
origin = "{0, 12}";
type = Corner;
name = _corner.01;
},
{
origin = "{0, 0}";
type = Corner;
name = _corner.02;
},
{
origin = "{0, 2}";
type = Corner;
name = _corner.02;
},
{
origin = "{0, 1}";
type = Corner;
name = _corner.02;
}
);
layerId = "71411993-19D9-448E-BF2F-5CFC0F6AC4B0";
paths = (
{
closed = 1;
nodes = (
"138 0 LINE",
"646 0 LINE",
"646 116 LINE",
"258 116 LINE",
"258 180 LINE SMOOTH",
"258 226 OFFCURVE",
"264 245 OFFCURVE",
"298 271 CURVE SMOOTH",
"554 464 LINE SMOOTH",
"616 510 OFFCURVE",
"628 548 OFFCURVE",
"628 621 CURVE SMOOTH",
"628 870 LINE",
"146 870 LINE",
"146 630 LINE",
"266 630 LINE",
"266 754 LINE",
"508 754 LINE",
"508 636 LINE SMOOTH",
"508 586 OFFCURVE",
"502 572 OFFCURVE",
"468 546 CURVE SMOOTH",
"211 350 LINE SMOOTH",
"149 302 OFFCURVE",
"138 264 OFFCURVE",
"138 192 CURVE SMOOTH"
);
}
);
width = 768;
}
);
unicode = 0032;
},
{
glyphname = three;
lastChange = "2018-01-07 13:33:51 +0000";
layers = (
{
hints = (
{
origin = "{0, 14}";
type = Corner;
name = _corner.01;
},
{
origin = "{0, 16}";
type = Corner;
name = _corner.01;
},
{
origin = "{0, 1}";
type = Corner;
name = _corner.02;
},
{
origin = "{0, 0}";
type = Corner;
name = _corner.02;
},
{
origin = "{0, 8}";
type = Corner;
name = _corner.02;
},
{
origin = "{0, 12}";
type = Corner;
name = _corner.02;
},
{
origin = "{0, 13}";
type = Corner;
name = _corner.02;
},
{
origin = "{0, 15}";
type = Corner;
name = _corner.01;
}
);
layerId = "71411993-19D9-448E-BF2F-5CFC0F6AC4B0";
paths = (
{
closed = 1;
nodes = (
"122 870 LINE",
"122 754 LINE",
"488 754 LINE",
"473 794 LINE",
"231 524 LINE SMOOTH",
"217 508 OFFCURVE",
"213 497 OFFCURVE",
"213 476 CURVE SMOOTH",
"213 387 LINE",
"490 387 LINE",
"490 116 LINE",
"210 116 LINE",
"210 236 LINE",
"90 236 LINE",
"90 0 LINE",
"610 0 LINE",
"610 503 LINE",
"305 503 LINE",
"323 463 LINE",
"560 723 LINE SMOOTH",
"585 751 OFFCURVE",
"595 774 OFFCURVE",
"595 801 CURVE SMOOTH",
"595 842 OFFCURVE",
"570 870 OFFCURVE",
"514 870 CURVE SMOOTH"
);
}
);
width = 740;
}
);
unicode = 0033;
},
{
glyphname = four;
lastChange = "2018-01-07 10:57:45 +0000";
layers = (
{
hints = (
{
origin = "{0, 3}";
type = Corner;
name = _corner.02;
},
{
origin = "{0, 2}";
type = Corner;
name = _corner.02;
},
{
origin = "{0, 0}";
type = Corner;
name = _corner.02;
},
{
origin = "{0, 1}";
type = Corner;
name = _corner.02;
},
{
origin = "{1, 15}";
type = Corner;
name = _corner.02;
},
{
origin = "{1, 16}";
type = Corner;
name = _corner.02;
}
);
layerId = "71411993-19D9-448E-BF2F-5CFC0F6AC4B0";
paths = (
{
closed = 1;
nodes = (
"448 0 LINE",
"568 0 LINE",
"568 650 LINE",
"448 650 LINE"
);
},
{
closed = 1;
nodes = (
"421 837 LINE SMOOTH",
"429 856 OFFCURVE",
"420 870 OFFCURVE",
"399 870 CURVE SMOOTH",
"326 870 LINE SMOOTH",
"310 870 OFFCURVE",
"300 862 OFFCURVE",
"294 848 CURVE SMOOTH",
"90 360 LINE SMOOTH",
"81 339 OFFCURVE",
"77 322 OFFCURVE",
"77 305 CURVE SMOOTH",
"77 252 OFFCURVE",
"109 220 OFFCURVE",
"167 220 CURVE SMOOTH",
"688 220 LINE",
"688 336 LINE",
"214 336 LINE"
);
}
);
width = 763;
}
);
unicode = 0034;
},
{
glyphname = five;
lastChange = "2018-01-09 12:44:09 +0000";
layers = (
{
hints = (
{
origin = "{0, 9}";
type = Corner;
name = _corner.02;
},
{
origin = "{0, 10}";
type = Corner;
name = _corner.02;
},
{
origin = "{0, 11}";
type = Corner;
name = _corner.01;
},
{
origin = "{0, 12}";
type = Corner;
name = _corner.01;
},
{
origin = "{0, 13}";
type = Corner;
name = _corner.01;
},
{
origin = "{0, 3}";
type = Corner;
name = _corner.02;
},
{
origin = "{0, 2}";
type = Corner;
name = _corner.02;
},
{
origin = "{0, 5}";
type = Corner;
name = _corner.01;
},
{
origin = "{0, 4}";
type = Corner;
name = _corner.01;
}
);
layerId = "71411993-19D9-448E-BF2F-5CFC0F6AC4B0";
paths = (
{
closed = 1;
nodes = (
"264 503 LINE",
"264 754 LINE",
"600 754 LINE",
"600 870 LINE",
"144 870 LINE",
"144 387 LINE",
"520 387 LINE",
"520 116 LINE",
"230 116 LINE",
"230 240 LINE",
"110 240 LINE",
"110 0 LINE",
"640 0 LINE",
"640 503 LINE"
);
}
);
width = 778;
}
);
unicode = 0035;
},
{
glyphname = six;
lastChange = "2018-01-07 13:33:26 +0000";
layers = (
{
hints = (
{
origin = "{0, 11}";
type = Corner;
name = _corner.01;
},
{
origin = "{0, 12}";
type = Corner;
name = _corner.01;
},
{
origin = "{0, 13}";
type = Corner;
name = _corner.01;
},
{
origin = "{0, 4}";
type = Corner;
name = _corner.01;
},
{
origin = "{1, 0}";
type = Corner;
name = _corner.02;
},
{
origin = "{1, 1}";
type = Corner;
name = _corner.02;
},
{
origin = "{0, 3}";
type = Corner;
name = _corner.01;
}
);
layerId = "71411993-19D9-448E-BF2F-5CFC0F6AC4B0";
paths = (
{
closed = 1;
nodes = (
"270 503 LINE",
"270 754 LINE",
"650 754 LINE",
"650 870 LINE",
"150 870 LINE",
"150 387 LINE",
"550 387 LINE",
"550 116 LINE",
"270 116 LINE",
"270 415 LINE",
"150 415 LINE",
"150 0 LINE",
"670 0 LINE",
"670 503 LINE"
);
},
{
closed = 1;
nodes = (
"530 630 LINE",
"650 630 LINE",
"650 754 LINE",
"530 754 LINE"
);
}
);
width = 810;
}
);
leftMetricsKey = O;
unicode = 0036;
},
{
glyphname = seven;
lastChange = "2018-01-07 13:33:11 +0000";
layers = (
{
hints = (
{
origin = "{0, 1}";
type = Corner;
name = _corner.02;
},
{
origin = "{0, 0}";
type = Corner;
name = _corner.02;
},
{
origin = "{0, 19}";
type = Corner;
name = _corner.02;
}
);
layerId = "71411993-19D9-448E-BF2F-5CFC0F6AC4B0";
paths = (
{
closed = 1;
nodes = (
"83 630 LINE",
"203 630 LINE",
"203 754 LINE",
"500 754 LINE",
"214 32 LINE SMOOTH",
"206 12 OFFCURVE",
"217 0 OFFCURVE",
"237 0 CURVE SMOOTH",
"308 0 LINE SMOOTH",
"324 0 OFFCURVE",
"334 6 OFFCURVE",
"340 22 CURVE SMOOTH",
"621 732 LINE SMOOTH",
"629 752 OFFCURVE",
"632 768 OFFCURVE",
"632 784 CURVE SMOOTH",
"632 838 OFFCURVE",
"600 870 OFFCURVE",
"536 870 CURVE SMOOTH",
"83 870 LINE"
);
}
);
width = 716;
}
);
unicode = 0037;
},
{
glyphname = eight;
lastChange = "2018-01-07 13:37:23 +0000";
layers = (
{
hints = (
{
origin = "{0, 18}";
type = Corner;
name = _corner.01;
},
{
origin = "{0, 19}";
type = Corner;
name = _corner.01;
},
{
origin = "{0, 6}";
type = Corner;
name = _corner.01;
},
{
origin = "{0, 7}";
type = Corner;
name = _corner.01;
}
);
layerId = "71411993-19D9-448E-BF2F-5CFC0F6AC4B0";
paths = (
{
closed = 1;
nodes = (
"503 469 LINE",
"509 433 LINE",
"588 467 LINE SMOOTH",
"650 494 OFFCURVE",
"671 540 OFFCURVE",
"671 606 CURVE SMOOTH",
"671 870 LINE",
"155 870 LINE",
"155 611 LINE SMOOTH",
"155 545 OFFCURVE",
"174 496 OFFCURVE",
"234 470 CURVE SMOOTH",
"313 436 LINE",
"319 473 LINE",
"213 417 LINE SMOOTH",
"157 387 OFFCURVE",
"140 336 OFFCURVE",
"140 272 CURVE SMOOTH",
"140 0 LINE",
"683 0 LINE",
"683 270 LINE SMOOTH",
"683 334 OFFCURVE",
"666 387 OFFCURVE",
"610 415 CURVE SMOOTH"
);
},
{
closed = 1;
nodes = (
"551 754 LINE",
"551 616 LINE SMOOTH",
"551 583 OFFCURVE",
"542 559 OFFCURVE",
"507 542 CURVE SMOOTH",
"375 476 LINE",
"457 478 LINE",
"328 537 LINE SMOOTH",
"284 557 OFFCURVE",
"275 576 OFFCURVE",
"275 616 CURVE SMOOTH",
"275 754 LINE"
);
},
{
closed = 1;
nodes = (
"260 116 LINE",
"260 272 LINE SMOOTH",
"260 304 OFFCURVE",
"270 327 OFFCURVE",
"298 344 CURVE SMOOTH",
"455 440 LINE",
"359 430 LINE",
"525 344 LINE SMOOTH",
"553 329 OFFCURVE",
"563 304 OFFCURVE",
"563 272 CURVE SMOOTH",
"563 116 LINE"
);
}
);
width = 823;
},
{
associatedMasterId = "71411993-19D9-448E-BF2F-5CFC0F6AC4B0";
hints = (
{
origin = "{1, 1}";
type = Corner;
name = _corner.02;
},
{
origin = "{1, 2}";
type = Corner;
name = _corner.02;
},
{
origin = "{2, 1}";
type = Corner;
name = _corner.02;
},
{
origin = "{2, 0}";
type = Corner;
name = _corner.02;
}
);
layerId = "37A60DE1-EF00-4476-89F3-282D65E5B3D3";
name = "Nov 18 17, 22:02";
paths = (
{
closed = 1;
nodes = (
"670 900 LINE",
"180 900 LINE",
"180 650 LINE",
"600 230 LINE",
"600 116 LINE",
"240 116 LINE",
"240 420 LINE",
"120 420 LINE",
"120 0 LINE",
"720 0 LINE",
"720 271 LINE",
"300 691 LINE",
"300 784 LINE",
"550 784 LINE",
"550 584 LINE",
"670 584 LINE"
);
},
{
closed = 1;
nodes = (
"120 300 LINE",
"360 300 LINE",
"360 420 LINE",
"120 420 LINE"
);
},
{
closed = 1;
nodes = (
"430 704 LINE",
"430 584 LINE",
"670 584 LINE",
"670 704 LINE"
);
}
);
width = 810;
},
{
associatedMasterId = "71411993-19D9-448E-BF2F-5CFC0F6AC4B0";
hints = (
{
origin = "{0, 5}";
type = Corner;
name = _corner.01;
},
{
origin = "{0, 9}";
type = Corner;
name = _corner.01;
}
);
layerId = "332C92D2-DAB2-4A7F-9E8C-C989F38D1A69";
name = "Nov 19 17, 13:02";
paths = (
{
closed = 1;
nodes = (
"405 784 LINE",
"570 784 LINE",
"570 116 LINE",
"405 116 LINE",
"405 0 LINE",
"690 0 LINE",
"690 432 LINE",
"662 460 LINE",
"690 488 LINE",
"690 900 LINE",
"405 900 LINE"
);
},
{
closed = 1;
nodes = (
"405 400 LINE",
"650 400 LINE",
"650 520 LINE",
"405 520 LINE"
);
}
);
width = 810;
},
{
associatedMasterId = "71411993-19D9-448E-BF2F-5CFC0F6AC4B0";
hints = (
{
origin = "{0, 3}";
type = Corner;
name = _corner.01;
},
{
origin = "{0, 2}";
type = Corner;
name = _corner.01;
},
{
origin = "{2, 0}";
type = Corner;
name = _corner.01;
},
{
origin = "{2, 1}";
type = Corner;
name = _corner.01;
},
{
origin = "{2, 2}";
type = Corner;
name = _corner.01;
},
{
origin = "{2, 3}";
type = Corner;
name = _corner.01;
}
);
layerId = "5440A510-6266-4B36-B255-2D9B0CCD0A03";
name = "Nov 19 17, 13:25";
paths = (
{
closed = 1;
nodes = (
"500 452 LINE",
"620 452 LINE",
"620 900 LINE",
"150 900 LINE",
"150 452 LINE",
"270 452 LINE",
"270 784 LINE",
"500 784 LINE"
);
},
{
closed = 1;
nodes = (
"220 120 LINE",
"220 402 LINE",
"550 402 LINE",
"550 120 LINE"
);
},
{
closed = 1;
nodes = (
"100 518 LINE",
"100 0 LINE",
"670 0 LINE",
"670 518 LINE"
);
}
);
width = 770;
},
{
associatedMasterId = "71411993-19D9-448E-BF2F-5CFC0F6AC4B0";
layerId = "DDAB44E9-D156-4534-9EB6-8E5BFAFC0202";
name = "Nov 19 17, 13:29";
paths = (
{
closed = 1;
nodes = (
"270 630 LINE",
"270 784 LINE",
"500 784 LINE",
"500 615 LINE",
"337 480 LINE",
"432 413 LINE",
"620 574 LINE",
"620 900 LINE",
"150 900 LINE",
"150 574 LINE",
"550 280 LINE",
"550 120 LINE",
"220 120 LINE",
"220 296 LINE",
"407 476 LINE",
"300 529 LINE",
"100 341 LINE",
"100 0 LINE",
"670 0 LINE",
"670 341 LINE"
);
}
);
width = 770;
},
{
associatedMasterId = "71411993-19D9-448E-BF2F-5CFC0F6AC4B0";
hints = (
{
origin = "{0, 7}";
type = Corner;
name = _corner.01;
},
{
origin = "{0, 8}";
type = Corner;
name = _corner.01;
},
{
origin = "{0, 17}";
type = Corner;
name = _corner.01;
},
{
origin = "{0, 18}";
type = Corner;
name = _corner.01;
}
);
layerId = "DC4C32A6-A864-4C90-A1E5-975E5CA3D3AB";
name = "Nov 19 17, 13:31";
paths = (
{
closed = 1;
nodes = (
"250 600 LINE",
"250 784 LINE",
"520 784 LINE",
"520 596 LINE",
"337 490 LINE",
"432 423 LINE",
"640 544 LINE",
"640 900 LINE",
"130 900 LINE",
"130 544 LINE",
"550 310 LINE",
"550 120 LINE",
"220 120 LINE",
"220 326 LINE",
"422 466 LINE",
"300 519 LINE",
"100 371 LINE",
"100 0 LINE",
"670 0 LINE",
"670 371 LINE"
);
}
);
width = 770;
}
);
unicode = 0038;
},
{
glyphname = nine;
lastChange = "2018-01-07 13:33:31 +0000";
layers = (
{
hints = (
{
origin = "{0, 3}";
type = Corner;
name = _corner.01;
},
{
origin = "{0, 4}";
type = Corner;
name = _corner.01;
},
{
origin = "{0, 11}";
type = Corner;
name = _corner.01;
},
{
origin = "{0, 12}";
type = Corner;
name = _corner.01;
},
{
origin = "{0, 13}";
type = Corner;
name = _corner.01;
},
{
origin = "{1, 0}";
type = Corner;
name = _corner.02;
},
{
origin = "{1, 1}";
type = Corner;
name = _corner.02;
}
);
layerId = "71411993-19D9-448E-BF2F-5CFC0F6AC4B0";
paths = (
{
closed = 1;
nodes = (
"540 367 LINE",
"540 116 LINE",
"160 116 LINE",
"160 0 LINE",
"660 0 LINE",
"660 483 LINE",
"260 483 LINE",
"260 754 LINE",
"540 754 LINE",
"540 455 LINE",
"660 455 LINE",
"660 870 LINE",
"140 870 LINE",
"140 367 LINE"
);
},
{
closed = 1;
nodes = (
"280 240 LINE",
"160 240 LINE",
"160 116 LINE",
"280 116 LINE"
);
}
);
width = 810;
}
);
rightMetricsKey = O;
unicode = 0039;
},
{
glyphname = colon;
lastChange = "2017-11-19 12:20:40 +0000";
layers = (
{
hints = (
{
origin = "{0, 0}";
type = Corner;
name = _corner.02;
},
{
origin = "{0, 1}";
type = Corner;
name = _corner.02;
},
{
origin = "{0, 2}";
type = Corner;
name = _corner.02;
},
{
origin = "{0, 3}";
type = Corner;
name = _corner.02;
},
{
origin = "{1, 0}";
type = Corner;
name = _corner.02;
},
{
origin = "{1, 1}";
type = Corner;
name = _corner.02;
},
{
origin = "{1, 2}";
type = Corner;
name = _corner.02;
},
{
origin = "{1, 3}";
type = Corner;
name = _corner.02;
}
);
layerId = "71411993-19D9-448E-BF2F-5CFC0F6AC4B0";
paths = (
{
closed = 1;
nodes = (
"140 120 LINE",
"260 120 LINE",
"260 240 LINE",
"140 240 LINE"
);
},
{
closed = 1;
nodes = (
"140 600 LINE",
"260 600 LINE",
"260 720 LINE",
"140 720 LINE"
);
}
);
width = 400;
}
);
unicode = 003A;
},
{
glyphname = period;
lastChange = "2017-11-19 12:18:31 +0000";
layers = (
{
hints = (
{
origin = "{0, 3}";
type = Corner;
name = _corner.02;
},
{
origin = "{0, 1}";
type = Corner;
name = _corner.02;
},
{
origin = "{0, 0}";
type = Corner;
name = _corner.02;
},
{
origin = "{0, 2}";
type = Corner;
name = _corner.02;
}
);
layerId = "71411993-19D9-448E-BF2F-5CFC0F6AC4B0";
paths = (
{
closed = 1;
nodes = (
"40 0 LINE",
"160 0 LINE",
"160 120 LINE",
"40 120 LINE"
);
}
);
width = 200;
}
);
unicode = 002E;
},
{
glyphname = slash;
lastChange = "2017-11-19 12:21:44 +0000";
layers = (
{
layerId = "71411993-19D9-448E-BF2F-5CFC0F6AC4B0";
paths = (
{
closed = 1;
nodes = (
"84 31 LINE SMOOTH",
"78 12 OFFCURVE",
"87 0 OFFCURVE",
"106 0 CURVE SMOOTH",
"170 0 LINE SMOOTH",
"186 0 OFFCURVE",
"198 7 OFFCURVE",
"203 24 CURVE SMOOTH",
"474 869 LINE SMOOTH",
"480 888 OFFCURVE",
"471 900 OFFCURVE",
"452 900 CURVE SMOOTH",
"388 900 LINE SMOOTH",
"372 900 OFFCURVE",
"360 893 OFFCURVE",
"354 876 CURVE SMOOTH"
);
}
);
width = 558;
}
);
unicode = 002F;
},
{
glyphname = underscore;
lastChange = "2017-11-19 12:39:33 +0000";
layers = (
{
hints = (
{
origin = "{0, 0}";
type = Corner;
name = _corner.02;
},
{
origin = "{0, 1}";
type = Corner;
name = _corner.02;
},
{
origin = "{0, 2}";
type = Corner;
name = _corner.02;
},
{
origin = "{0, 3}";
type = Corner;
name = _corner.02;
}
);
layerId = "71411993-19D9-448E-BF2F-5CFC0F6AC4B0";
paths = (
{
closed = 1;
nodes = (
"40 -190 LINE",
"600 -190 LINE",
"600 -70 LINE",
"40 -70 LINE"
);
}
);
width = 640;
}
);
unicode = 005F;
},
{
glyphname = hyphen;
lastChange = "2017-12-17 10:04:04 +0000";
layers = (
{
hints = (
{
origin = "{0, 0}";
type = Corner;
name = _corner.02;
},
{
origin = "{0, 1}";
type = Corner;
name = _corner.02;
},
{
origin = "{0, 2}";
type = Corner;
name = _corner.02;
},
{
origin = "{0, 3}";
type = Corner;
name = _corner.02;
}
);
layerId = "71411993-19D9-448E-BF2F-5CFC0F6AC4B0";
paths = (
{
closed = 1;
nodes = (
"70 264 LINE",
"430 264 LINE",
"430 384 LINE",
"70 384 LINE"
);
}
);
width = 500;
}
);
unicode = 002D;
},
{
export = 0;
glyphname = acutecomb;
lastChange = "2018-01-07 09:39:16 +0000";
layers = (
{
anchors = (
{
name = _top;
position = "{207, 680}";
},
{
name = top;
position = "{248, 870}";
}
);
layerId = "71411993-19D9-448E-BF2F-5CFC0F6AC4B0";
paths = (
{
closed = 1;
nodes = (
"144 744 LINE SMOOTH",
"136 730 OFFCURVE",
"141 720 OFFCURVE",
"157 720 CURVE SMOOTH",
"212 720 LINE SMOOTH",
"222 720 OFFCURVE",
"230 724 OFFCURVE",
"236 732 CURVE SMOOTH",
"348 876 LINE SMOOTH",
"358 889 OFFCURVE",
"353 900 OFFCURVE",
"336 900 CURVE SMOOTH",
"255 900 LINE SMOOTH",
"244 900 OFFCURVE",
"237 897 OFFCURVE",
"231 887 CURVE SMOOTH"
);
}
);
width = 493;
}
);
leftMetricsKey = n;
rightMetricsKey = "=|n";
unicode = 0301;
},
{
export = 0;
glyphname = hungarumlautcomb;
lastChange = "2018-01-07 09:39:16 +0000";
layers = (
{
anchors = (
{
name = _top;
position = "{347, 680}";
},
{
name = top;
position = "{347, 900}";
}
);
layerId = "71411993-19D9-448E-BF2F-5CFC0F6AC4B0";
paths = (
{
closed = 1;
nodes = (
"144 744 LINE SMOOTH",
"136 730 OFFCURVE",
"141 720 OFFCURVE",
"157 720 CURVE SMOOTH",
"212 720 LINE SMOOTH",
"222 720 OFFCURVE",
"230 724 OFFCURVE",
"236 732 CURVE SMOOTH",
"348 876 LINE SMOOTH",
"358 889 OFFCURVE",
"353 900 OFFCURVE",
"336 900 CURVE SMOOTH",
"255 900 LINE SMOOTH",
"244 900 OFFCURVE",
"237 897 OFFCURVE",
"231 887 CURVE SMOOTH"
);
},
{
closed = 1;
nodes = (
"344 744 LINE SMOOTH",
"336 730 OFFCURVE",
"341 720 OFFCURVE",
"357 720 CURVE SMOOTH",
"412 720 LINE SMOOTH",
"422 720 OFFCURVE",
"430 724 OFFCURVE",
"436 732 CURVE SMOOTH",
"548 876 LINE SMOOTH",
"558 889 OFFCURVE",
"553 900 OFFCURVE",
"536 900 CURVE SMOOTH",
"455 900 LINE SMOOTH",
"444 900 OFFCURVE",
"437 897 OFFCURVE",
"431 887 CURVE SMOOTH"
);
}
);
width = 693;
}
);
leftMetricsKey = n;
rightMetricsKey = "=|n";
unicode = 030B;
},
{
export = 0;
glyphname = brevecomb;
lastChange = "2018-01-07 09:39:16 +0000";
layers = (
{
anchors = (
{
name = _top;
position = "{309, 680}";
},
{
name = top;
position = "{309, 900}";
}
);
layerId = "71411993-19D9-448E-BF2F-5CFC0F6AC4B0";
paths = (
{
closed = 1;
nodes = (
"141 871 LINE SMOOTH",
"152 773 OFFCURVE",
"216 719 OFFCURVE",
"309 719 CURVE",
"309 817 LINE",
"261 817 OFFCURVE",
"242 844 OFFCURVE",
"233 883 CURVE SMOOTH",
"230 895 OFFCURVE",
"223 900 OFFCURVE",
"211 900 CURVE SMOOTH",
"160 900 LINE SMOOTH",
"147 900 OFFCURVE",
"139 893 OFFCURVE",
"140 880 CURVE SMOOTH"
);
},
{
closed = 1;
nodes = (
"479 893 OFFCURVE",
"471 900 OFFCURVE",
"458 900 CURVE SMOOTH",
"407 900 LINE SMOOTH",
"395 900 OFFCURVE",
"388 894 OFFCURVE",
"385 883 CURVE SMOOTH",
"374 845 OFFCURVE",
"357 817 OFFCURVE",
"309 817 CURVE",
"309 719 LINE",
"402 719 OFFCURVE",
"466 773 OFFCURVE",
"477 871 CURVE SMOOTH",
"478 880 LINE SMOOTH"
);
}
);
width = 618;
}
);
leftMetricsKey = n;
rightMetricsKey = "=|n";
unicode = 0306;
},
{
export = 0;
glyphname = _corner.01;
lastChange = "2017-11-20 08:35:06 +0000";
layers = (
{
anchors = (
{
name = origin;
position = "{0, 0}";
}
);
associatedMasterId = "71411993-19D9-448E-BF2F-5CFC0F6AC4B0";
layerId = "E0C34771-3806-48E2-8DD3-8E48DD0BCD11";
name = "Nov 19 17, 19:56";
paths = (
{
closed = 0;
nodes = (
"0 120 LINE",
"0 36 OFFCURVE",
"36 0 OFFCURVE",
"120 0 CURVE SMOOTH"
);
}
);
width = 600;
},
{
anchors = (
{
name = origin;
position = "{0, 0}";
}
);
layerId = "71411993-19D9-448E-BF2F-5CFC0F6AC4B0";
paths = (
{
closed = 0;
nodes = (
"0 115 LINE",
"0 77 OFFCURVE",
"7 47 OFFCURVE",
"27 27 CURVE SMOOTH",
"47 7 OFFCURVE",
"77 0 OFFCURVE",
"115 0 CURVE SMOOTH"
);
}
);
width = 215;
}
);
},
{
export = 0;
glyphname = _corner.02;
lastChange = "2017-11-19 13:08:08 +0000";
layers = (
{
layerId = "71411993-19D9-448E-BF2F-5CFC0F6AC4B0";
paths = (
{
closed = 0;
nodes = (
"0 28 LINE",
"0 20 OFFCURVE",
"1 13 OFFCURVE",
"7 7 CURVE SMOOTH",
"13 1 OFFCURVE",
"20 0 OFFCURVE",
"28 0 CURVE SMOOTH"
);
}
);
width = 600;
}
);
},
{
glyphname = idotless;
lastChange = "2018-01-07 11:38:02 +0000";
layers = (
{
hints = (
{
origin = "{0, 0}";
type = Corner;
name = _corner.02;
},
{
origin = "{0, 1}";
type = Corner;
name = _corner.02;
},
{
origin = "{0, 2}";
type = Corner;
name = _corner.02;
},
{
origin = "{0, 3}";
type = Corner;
name = _corner.02;
}
);
layerId = "71411993-19D9-448E-BF2F-5CFC0F6AC4B0";
paths = (
{
closed = 1;
nodes = (
"140 680 LINE",
"140 0 LINE",
"256 0 LINE",
"256 680 LINE"
);
}
);
width = 396;
}
);
},
